%TF.GenerationSoftware,KiCad,Pcbnew,(6.0.2)*%
%TF.CreationDate,2022-03-14T13:43:41+08:00*%
%TF.ProjectId,game,67616d65-2e6b-4696-9361-645f70636258,0.1*%
%TF.SameCoordinates,Original*%
%TF.FileFunction,Paste,Bot*%
%TF.FilePolarity,Positive*%
%FSLAX46Y46*%
G04 Gerber Fmt 4.6, Leading zero omitted, Abs format (unit mm)*
G04 Created by KiCad (PCBNEW (6.0.2)) date 2022-03-14 13:43:41*
%MOMM*%
%LPD*%
G01*
G04 APERTURE LIST*
G04 Aperture macros list*
%AMRoundRect*
0 Rectangle with rounded corners*
0 $1 Rounding radius*
0 $2 $3 $4 $5 $6 $7 $8 $9 X,Y pos of 4 corners*
0 Add a 4 corners polygon primitive as box body*
4,1,4,$2,$3,$4,$5,$6,$7,$8,$9,$2,$3,0*
0 Add four circle primitives for the rounded corners*
1,1,$1+$1,$2,$3*
1,1,$1+$1,$4,$5*
1,1,$1+$1,$6,$7*
1,1,$1+$1,$8,$9*
0 Add four rect primitives between the rounded corners*
20,1,$1+$1,$2,$3,$4,$5,0*
20,1,$1+$1,$4,$5,$6,$7,0*
20,1,$1+$1,$6,$7,$8,$9,0*
20,1,$1+$1,$8,$9,$2,$3,0*%
G04 Aperture macros list end*
%TA.AperFunction,Profile*%
%ADD10C,0.100000*%
%TD*%
%ADD11R,2.032000X1.778000*%
%ADD12R,0.864000X0.806000*%
%ADD13RoundRect,0.250000X-0.315000X0.315000X-0.315000X-0.315000X0.315000X-0.315000X0.315000X0.315000X0*%
%ADD14RoundRect,0.062500X-0.062500X0.375000X-0.062500X-0.375000X0.062500X-0.375000X0.062500X0.375000X0*%
%ADD15RoundRect,0.062500X-0.375000X0.062500X-0.375000X-0.062500X0.375000X-0.062500X0.375000X0.062500X0*%
%ADD16R,0.900000X0.800000*%
%ADD17O,1.000000X2.100000*%
%ADD18O,1.000000X1.800000*%
%ADD19R,0.700000X1.200000*%
%ADD20R,0.800000X1.200000*%
%ADD21R,0.900000X1.200000*%
%ADD22R,0.300000X1.300000*%
%ADD23R,2.000000X1.600000*%
%ADD24R,1.150000X0.600000*%
%ADD25R,0.806000X0.864000*%
%ADD26R,1.133000X1.377000*%
%ADD27R,0.800000X0.900000*%
%ADD28R,1.100000X0.600000*%
%ADD29R,0.600000X1.200000*%
%ADD30R,3.500000X2.500000*%
%ADD31R,3.000000X3.000000*%
G04 APERTURE END LIST*
D10*
X109550200Y-123291600D02*
X190830200Y-123291600D01*
X190830200Y-123291600D02*
G75*
G03*
X193116200Y-121005600I0J2286000D01*
G01*
X193116200Y-71475600D02*
X193116200Y-121005600D01*
X107264200Y-71475600D02*
X107264200Y-121005600D01*
X193116200Y-71475600D02*
G75*
G03*
X190830200Y-69189600I-2286000J0D01*
G01*
X109550200Y-69189600D02*
X190830200Y-69189600D01*
X107264200Y-121005600D02*
G75*
G03*
X109550200Y-123291600I2286000J0D01*
G01*
X109550200Y-69189600D02*
G75*
G03*
X107264200Y-71475600I0J-2286000D01*
G01*
%TO.C,R1*%
G36*
X164470800Y-103432600D02*
G01*
X164800800Y-103432600D01*
X164800800Y-103062600D01*
X165042800Y-103062600D01*
X165092800Y-103112600D01*
X165092800Y-103912600D01*
X165042800Y-103962600D01*
X164242800Y-103962600D01*
X164192800Y-103912600D01*
X164192800Y-103112600D01*
X164242800Y-103062600D01*
X164470800Y-103062600D01*
X164470800Y-103432600D01*
G37*
G36*
X165092800Y-101522600D02*
G01*
X165092800Y-102312600D01*
X165042800Y-102362600D01*
X164800800Y-102362600D01*
X164800800Y-101982600D01*
X164470800Y-101982600D01*
X164470800Y-102362600D01*
X164242800Y-102362600D01*
X164192800Y-102312600D01*
X164192800Y-101522600D01*
X164242800Y-101472600D01*
X165042800Y-101472600D01*
X165092800Y-101522600D01*
G37*
%TO.C,J2*%
G36*
X182905800Y-116261000D02*
G01*
X182205800Y-116261000D01*
X182205800Y-115061000D01*
X182905800Y-115061000D01*
X182905800Y-116261000D01*
G37*
G36*
X178772800Y-118862000D02*
G01*
X178797800Y-118865000D01*
X178822800Y-118869000D01*
X178846800Y-118874000D01*
X178870800Y-118880000D01*
X178894800Y-118887000D01*
X178918800Y-118896000D01*
X178941800Y-118905000D01*
X178963800Y-118916000D01*
X178985800Y-118928000D01*
X179006800Y-118941000D01*
X179027800Y-118955000D01*
X179047800Y-118970000D01*
X179066800Y-118986000D01*
X179084800Y-119003000D01*
X179102800Y-119021000D01*
X179134800Y-119059000D01*
X179148800Y-119079000D01*
X179162800Y-119100000D01*
X179186800Y-119144000D01*
X179196800Y-119167000D01*
X179205800Y-119190000D01*
X179213800Y-119214000D01*
X179220800Y-119238000D01*
X179225800Y-119262000D01*
X179229800Y-119287000D01*
X179233800Y-119311000D01*
X179235800Y-119361000D01*
X179235800Y-120161000D01*
X179233800Y-120211000D01*
X179229800Y-120236000D01*
X179225800Y-120260000D01*
X179220800Y-120284000D01*
X179213800Y-120308000D01*
X179205800Y-120332000D01*
X179196800Y-120355000D01*
X179186800Y-120378000D01*
X179162800Y-120422000D01*
X179148800Y-120443000D01*
X179134800Y-120463000D01*
X179102800Y-120501000D01*
X179084800Y-120519000D01*
X179066800Y-120536000D01*
X179047800Y-120552000D01*
X179027800Y-120567000D01*
X179006800Y-120581000D01*
X178985800Y-120594000D01*
X178963800Y-120606000D01*
X178941800Y-120617000D01*
X178918800Y-120626000D01*
X178894800Y-120635000D01*
X178870800Y-120642000D01*
X178846800Y-120648000D01*
X178822800Y-120653000D01*
X178797800Y-120657000D01*
X178772800Y-120660000D01*
X178748800Y-120661000D01*
X178723800Y-120661000D01*
X178698800Y-120660000D01*
X178673800Y-120657000D01*
X178648800Y-120653000D01*
X178624800Y-120648000D01*
X178600800Y-120642000D01*
X178576800Y-120635000D01*
X178552800Y-120626000D01*
X178529800Y-120617000D01*
X178507800Y-120606000D01*
X178485800Y-120594000D01*
X178464800Y-120581000D01*
X178443800Y-120567000D01*
X178423800Y-120552000D01*
X178404800Y-120536000D01*
X178386800Y-120519000D01*
X178369800Y-120501000D01*
X178352800Y-120482000D01*
X178336800Y-120463000D01*
X178322800Y-120443000D01*
X178308800Y-120422000D01*
X178296800Y-120400000D01*
X178285800Y-120378000D01*
X178274800Y-120355000D01*
X178265800Y-120332000D01*
X178257800Y-120308000D01*
X178245800Y-120260000D01*
X178241800Y-120236000D01*
X178238800Y-120211000D01*
X178236800Y-120186000D01*
X178235800Y-120161000D01*
X178235800Y-119361000D01*
X178236800Y-119336000D01*
X178238800Y-119311000D01*
X178241800Y-119287000D01*
X178245800Y-119262000D01*
X178257800Y-119214000D01*
X178265800Y-119190000D01*
X178274800Y-119167000D01*
X178285800Y-119144000D01*
X178296800Y-119122000D01*
X178308800Y-119100000D01*
X178322800Y-119079000D01*
X178336800Y-119059000D01*
X178352800Y-119040000D01*
X178369800Y-119021000D01*
X178386800Y-119003000D01*
X178404800Y-118986000D01*
X178423800Y-118970000D01*
X178443800Y-118955000D01*
X178464800Y-118941000D01*
X178485800Y-118928000D01*
X178507800Y-118916000D01*
X178529800Y-118905000D01*
X178552800Y-118896000D01*
X178576800Y-118887000D01*
X178600800Y-118880000D01*
X178624800Y-118874000D01*
X178648800Y-118869000D01*
X178673800Y-118865000D01*
X178698800Y-118862000D01*
X178723800Y-118861000D01*
X178748800Y-118861000D01*
X178772800Y-118862000D01*
G37*
G36*
X187412800Y-118862000D02*
G01*
X187437800Y-118865000D01*
X187462800Y-118869000D01*
X187486800Y-118874000D01*
X187510800Y-118880000D01*
X187534800Y-118887000D01*
X187558800Y-118896000D01*
X187581800Y-118905000D01*
X187603800Y-118916000D01*
X187625800Y-118928000D01*
X187646800Y-118941000D01*
X187667800Y-118955000D01*
X187687800Y-118970000D01*
X187706800Y-118986000D01*
X187724800Y-119003000D01*
X187741800Y-119021000D01*
X187758800Y-119040000D01*
X187773800Y-119059000D01*
X187788800Y-119079000D01*
X187802800Y-119100000D01*
X187814800Y-119122000D01*
X187825800Y-119144000D01*
X187836800Y-119167000D01*
X187845800Y-119190000D01*
X187853800Y-119214000D01*
X187865800Y-119262000D01*
X187869800Y-119287000D01*
X187872800Y-119311000D01*
X187874800Y-119336000D01*
X187875800Y-119361000D01*
X187875800Y-120161000D01*
X187874800Y-120186000D01*
X187872800Y-120211000D01*
X187869800Y-120236000D01*
X187865800Y-120260000D01*
X187853800Y-120308000D01*
X187845800Y-120332000D01*
X187836800Y-120355000D01*
X187825800Y-120378000D01*
X187814800Y-120400000D01*
X187802800Y-120422000D01*
X187788800Y-120443000D01*
X187773800Y-120463000D01*
X187758800Y-120482000D01*
X187741800Y-120501000D01*
X187724800Y-120519000D01*
X187706800Y-120536000D01*
X187687800Y-120552000D01*
X187667800Y-120567000D01*
X187646800Y-120581000D01*
X187625800Y-120594000D01*
X187603800Y-120606000D01*
X187581800Y-120617000D01*
X187558800Y-120626000D01*
X187534800Y-120635000D01*
X187510800Y-120642000D01*
X187486800Y-120648000D01*
X187462800Y-120653000D01*
X187437800Y-120657000D01*
X187412800Y-120660000D01*
X187387800Y-120661000D01*
X187362800Y-120661000D01*
X187338800Y-120660000D01*
X187313800Y-120657000D01*
X187288800Y-120653000D01*
X187264800Y-120648000D01*
X187239800Y-120642000D01*
X187216800Y-120635000D01*
X187192800Y-120626000D01*
X187169800Y-120617000D01*
X187147800Y-120606000D01*
X187125800Y-120594000D01*
X187104800Y-120581000D01*
X187083800Y-120567000D01*
X187063800Y-120552000D01*
X187044800Y-120536000D01*
X187026800Y-120519000D01*
X187008800Y-120501000D01*
X186976800Y-120463000D01*
X186962800Y-120443000D01*
X186948800Y-120422000D01*
X186924800Y-120378000D01*
X186914800Y-120355000D01*
X186905800Y-120332000D01*
X186897800Y-120308000D01*
X186890800Y-120284000D01*
X186880800Y-120236000D01*
X186877800Y-120211000D01*
X186875800Y-120161000D01*
X186875800Y-119361000D01*
X186877800Y-119311000D01*
X186880800Y-119287000D01*
X186885800Y-119262000D01*
X186890800Y-119238000D01*
X186897800Y-119214000D01*
X186905800Y-119190000D01*
X186914800Y-119167000D01*
X186924800Y-119144000D01*
X186948800Y-119100000D01*
X186962800Y-119079000D01*
X186976800Y-119059000D01*
X187008800Y-119021000D01*
X187026800Y-119003000D01*
X187044800Y-118986000D01*
X187063800Y-118970000D01*
X187083800Y-118955000D01*
X187104800Y-118941000D01*
X187125800Y-118928000D01*
X187147800Y-118916000D01*
X187169800Y-118905000D01*
X187192800Y-118896000D01*
X187216800Y-118887000D01*
X187239800Y-118880000D01*
X187264800Y-118874000D01*
X187288800Y-118869000D01*
X187313800Y-118865000D01*
X187338800Y-118862000D01*
X187362800Y-118861000D01*
X187387800Y-118861000D01*
X187412800Y-118862000D01*
G37*
G36*
X181935800Y-116261000D02*
G01*
X181135800Y-116261000D01*
X181135800Y-115061000D01*
X181935800Y-115061000D01*
X181935800Y-116261000D01*
G37*
G36*
X187412800Y-115012000D02*
G01*
X187437800Y-115015000D01*
X187462800Y-115019000D01*
X187486800Y-115024000D01*
X187510800Y-115030000D01*
X187534800Y-115037000D01*
X187558800Y-115046000D01*
X187581800Y-115055000D01*
X187603800Y-115066000D01*
X187625800Y-115078000D01*
X187646800Y-115091000D01*
X187667800Y-115105000D01*
X187687800Y-115120000D01*
X187706800Y-115136000D01*
X187724800Y-115153000D01*
X187741800Y-115171000D01*
X187758800Y-115190000D01*
X187773800Y-115209000D01*
X187788800Y-115229000D01*
X187802800Y-115250000D01*
X187814800Y-115272000D01*
X187825800Y-115294000D01*
X187836800Y-115317000D01*
X187845800Y-115340000D01*
X187853800Y-115364000D01*
X187865800Y-115412000D01*
X187869800Y-115436000D01*
X187872800Y-115461000D01*
X187874800Y-115486000D01*
X187875800Y-115511000D01*
X187875800Y-116611000D01*
X187874800Y-116636000D01*
X187872800Y-116661000D01*
X187869800Y-116686000D01*
X187865800Y-116710000D01*
X187853800Y-116758000D01*
X187845800Y-116782000D01*
X187836800Y-116805000D01*
X187825800Y-116828000D01*
X187814800Y-116850000D01*
X187802800Y-116872000D01*
X187788800Y-116893000D01*
X187773800Y-116913000D01*
X187758800Y-116932000D01*
X187741800Y-116951000D01*
X187724800Y-116969000D01*
X187706800Y-116986000D01*
X187687800Y-117002000D01*
X187667800Y-117017000D01*
X187646800Y-117031000D01*
X187625800Y-117044000D01*
X187603800Y-117056000D01*
X187581800Y-117067000D01*
X187558800Y-117076000D01*
X187534800Y-117085000D01*
X187510800Y-117092000D01*
X187486800Y-117098000D01*
X187462800Y-117103000D01*
X187437800Y-117107000D01*
X187412800Y-117110000D01*
X187387800Y-117111000D01*
X187362800Y-117111000D01*
X187338800Y-117110000D01*
X187313800Y-117107000D01*
X187288800Y-117103000D01*
X187264800Y-117098000D01*
X187239800Y-117092000D01*
X187216800Y-117085000D01*
X187192800Y-117076000D01*
X187169800Y-117067000D01*
X187147800Y-117056000D01*
X187125800Y-117044000D01*
X187104800Y-117031000D01*
X187083800Y-117017000D01*
X187063800Y-117002000D01*
X187044800Y-116986000D01*
X187026800Y-116969000D01*
X187008800Y-116951000D01*
X186976800Y-116913000D01*
X186962800Y-116893000D01*
X186948800Y-116872000D01*
X186924800Y-116828000D01*
X186914800Y-116805000D01*
X186905800Y-116782000D01*
X186897800Y-116758000D01*
X186890800Y-116734000D01*
X186880800Y-116686000D01*
X186877800Y-116661000D01*
X186875800Y-116611000D01*
X186875800Y-115511000D01*
X186877800Y-115461000D01*
X186880800Y-115436000D01*
X186890800Y-115388000D01*
X186897800Y-115364000D01*
X186905800Y-115340000D01*
X186914800Y-115317000D01*
X186924800Y-115294000D01*
X186948800Y-115250000D01*
X186962800Y-115229000D01*
X186976800Y-115209000D01*
X187008800Y-115171000D01*
X187026800Y-115153000D01*
X187044800Y-115136000D01*
X187063800Y-115120000D01*
X187083800Y-115105000D01*
X187104800Y-115091000D01*
X187125800Y-115078000D01*
X187147800Y-115066000D01*
X187169800Y-115055000D01*
X187192800Y-115046000D01*
X187216800Y-115037000D01*
X187239800Y-115030000D01*
X187264800Y-115024000D01*
X187288800Y-115019000D01*
X187313800Y-115015000D01*
X187338800Y-115012000D01*
X187362800Y-115011000D01*
X187387800Y-115011000D01*
X187412800Y-115012000D01*
G37*
G36*
X186255800Y-116261000D02*
G01*
X185355800Y-116261000D01*
X185355800Y-115061000D01*
X186255800Y-115061000D01*
X186255800Y-116261000D01*
G37*
G36*
X184975800Y-116261000D02*
G01*
X184175800Y-116261000D01*
X184175800Y-115061000D01*
X184975800Y-115061000D01*
X184975800Y-116261000D01*
G37*
G36*
X178772800Y-115012000D02*
G01*
X178797800Y-115015000D01*
X178822800Y-115019000D01*
X178846800Y-115024000D01*
X178871800Y-115030000D01*
X178894800Y-115037000D01*
X178918800Y-115046000D01*
X178941800Y-115055000D01*
X178963800Y-115066000D01*
X178985800Y-115078000D01*
X179006800Y-115091000D01*
X179027800Y-115105000D01*
X179047800Y-115120000D01*
X179066800Y-115136000D01*
X179084800Y-115153000D01*
X179102800Y-115171000D01*
X179134800Y-115209000D01*
X179148800Y-115229000D01*
X179162800Y-115250000D01*
X179186800Y-115294000D01*
X179196800Y-115317000D01*
X179205800Y-115340000D01*
X179213800Y-115364000D01*
X179220800Y-115388000D01*
X179230800Y-115436000D01*
X179233800Y-115461000D01*
X179235800Y-115511000D01*
X179235800Y-116611000D01*
X179233800Y-116661000D01*
X179230800Y-116686000D01*
X179220800Y-116734000D01*
X179213800Y-116758000D01*
X179205800Y-116782000D01*
X179196800Y-116805000D01*
X179186800Y-116828000D01*
X179162800Y-116872000D01*
X179148800Y-116893000D01*
X179134800Y-116913000D01*
X179102800Y-116951000D01*
X179084800Y-116969000D01*
X179066800Y-116986000D01*
X179047800Y-117002000D01*
X179027800Y-117017000D01*
X179006800Y-117031000D01*
X178985800Y-117044000D01*
X178963800Y-117056000D01*
X178941800Y-117067000D01*
X178918800Y-117076000D01*
X178894800Y-117085000D01*
X178871800Y-117092000D01*
X178846800Y-117098000D01*
X178822800Y-117103000D01*
X178797800Y-117107000D01*
X178772800Y-117110000D01*
X178748800Y-117111000D01*
X178723800Y-117111000D01*
X178698800Y-117110000D01*
X178673800Y-117107000D01*
X178648800Y-117103000D01*
X178624800Y-117098000D01*
X178600800Y-117092000D01*
X178576800Y-117085000D01*
X178552800Y-117076000D01*
X178529800Y-117067000D01*
X178507800Y-117056000D01*
X178485800Y-117044000D01*
X178464800Y-117031000D01*
X178443800Y-117017000D01*
X178423800Y-117002000D01*
X178404800Y-116986000D01*
X178386800Y-116969000D01*
X178369800Y-116951000D01*
X178352800Y-116932000D01*
X178337800Y-116913000D01*
X178322800Y-116893000D01*
X178308800Y-116872000D01*
X178296800Y-116850000D01*
X178285800Y-116828000D01*
X178274800Y-116805000D01*
X178265800Y-116782000D01*
X178257800Y-116758000D01*
X178245800Y-116710000D01*
X178241800Y-116686000D01*
X178238800Y-116661000D01*
X178236800Y-116636000D01*
X178235800Y-116611000D01*
X178235800Y-115511000D01*
X178236800Y-115486000D01*
X178238800Y-115461000D01*
X178241800Y-115436000D01*
X178245800Y-115412000D01*
X178257800Y-115364000D01*
X178265800Y-115340000D01*
X178274800Y-115317000D01*
X178285800Y-115294000D01*
X178296800Y-115272000D01*
X178308800Y-115250000D01*
X178322800Y-115229000D01*
X178337800Y-115209000D01*
X178352800Y-115190000D01*
X178369800Y-115171000D01*
X178386800Y-115153000D01*
X178404800Y-115136000D01*
X178423800Y-115120000D01*
X178443800Y-115105000D01*
X178464800Y-115091000D01*
X178485800Y-115078000D01*
X178507800Y-115066000D01*
X178529800Y-115055000D01*
X178552800Y-115046000D01*
X178576800Y-115037000D01*
X178600800Y-115030000D01*
X178624800Y-115024000D01*
X178648800Y-115019000D01*
X178673800Y-115015000D01*
X178698800Y-115012000D01*
X178723800Y-115011000D01*
X178748800Y-115011000D01*
X178772800Y-115012000D01*
G37*
G36*
X180755800Y-116261000D02*
G01*
X179855800Y-116261000D01*
X179855800Y-115061000D01*
X180755800Y-115061000D01*
X180755800Y-116261000D01*
G37*
G36*
X183905800Y-116261000D02*
G01*
X183205800Y-116261000D01*
X183205800Y-115061000D01*
X183905800Y-115061000D01*
X183905800Y-116261000D01*
G37*
%TO.C,R2*%
G36*
X144328600Y-103499800D02*
G01*
X144658600Y-103499800D01*
X144658600Y-103129800D01*
X144900600Y-103129800D01*
X144950600Y-103179800D01*
X144950600Y-103979800D01*
X144900600Y-104029800D01*
X144100600Y-104029800D01*
X144050600Y-103979800D01*
X144050600Y-103179800D01*
X144100600Y-103129800D01*
X144328600Y-103129800D01*
X144328600Y-103499800D01*
G37*
G36*
X144950600Y-101589800D02*
G01*
X144950600Y-102379800D01*
X144900600Y-102429800D01*
X144658600Y-102429800D01*
X144658600Y-102049800D01*
X144328600Y-102049800D01*
X144328600Y-102429800D01*
X144100600Y-102429800D01*
X144050600Y-102379800D01*
X144050600Y-101589800D01*
X144100600Y-101539800D01*
X144900600Y-101539800D01*
X144950600Y-101589800D01*
G37*
%TO.C,R6*%
G36*
X163235200Y-118206400D02*
G01*
X163565200Y-118206400D01*
X163565200Y-117836400D01*
X163807200Y-117836400D01*
X163857200Y-117886400D01*
X163857200Y-118686400D01*
X163807200Y-118736400D01*
X163007200Y-118736400D01*
X162957200Y-118686400D01*
X162957200Y-117886400D01*
X163007200Y-117836400D01*
X163235200Y-117836400D01*
X163235200Y-118206400D01*
G37*
G36*
X163857200Y-116296400D02*
G01*
X163857200Y-117086400D01*
X163807200Y-117136400D01*
X163565200Y-117136400D01*
X163565200Y-116756400D01*
X163235200Y-116756400D01*
X163235200Y-117136400D01*
X163007200Y-117136400D01*
X162957200Y-117086400D01*
X162957200Y-116296400D01*
X163007200Y-116246400D01*
X163807200Y-116246400D01*
X163857200Y-116296400D01*
G37*
%TO.C,R11*%
G36*
X122930200Y-121113600D02*
G01*
X122930200Y-121341600D01*
X122560200Y-121341600D01*
X122560200Y-121671600D01*
X122930200Y-121671600D01*
X122930200Y-121913600D01*
X122880200Y-121963600D01*
X122080200Y-121963600D01*
X122030200Y-121913600D01*
X122030200Y-121113600D01*
X122080200Y-121063600D01*
X122880200Y-121063600D01*
X122930200Y-121113600D01*
G37*
G36*
X124520200Y-121113600D02*
G01*
X124520200Y-121913600D01*
X124470200Y-121963600D01*
X123680200Y-121963600D01*
X123630200Y-121913600D01*
X123630200Y-121671600D01*
X124010200Y-121671600D01*
X124010200Y-121341600D01*
X123630200Y-121341600D01*
X123630200Y-121113600D01*
X123680200Y-121063600D01*
X124470200Y-121063600D01*
X124520200Y-121113600D01*
G37*
%TO.C,R7*%
G36*
X148269200Y-121012000D02*
G01*
X148269200Y-121812000D01*
X148219200Y-121862000D01*
X147429200Y-121862000D01*
X147379200Y-121812000D01*
X147379200Y-121570000D01*
X147759200Y-121570000D01*
X147759200Y-121240000D01*
X147379200Y-121240000D01*
X147379200Y-121012000D01*
X147429200Y-120962000D01*
X148219200Y-120962000D01*
X148269200Y-121012000D01*
G37*
G36*
X146679200Y-121012000D02*
G01*
X146679200Y-121240000D01*
X146309200Y-121240000D01*
X146309200Y-121570000D01*
X146679200Y-121570000D01*
X146679200Y-121812000D01*
X146629200Y-121862000D01*
X145829200Y-121862000D01*
X145779200Y-121812000D01*
X145779200Y-121012000D01*
X145829200Y-120962000D01*
X146629200Y-120962000D01*
X146679200Y-121012000D01*
G37*
%TO.C,R8*%
G36*
X148201800Y-116238200D02*
G01*
X148201800Y-117028200D01*
X148151800Y-117078200D01*
X147909800Y-117078200D01*
X147909800Y-116698200D01*
X147579800Y-116698200D01*
X147579800Y-117078200D01*
X147351800Y-117078200D01*
X147301800Y-117028200D01*
X147301800Y-116238200D01*
X147351800Y-116188200D01*
X148151800Y-116188200D01*
X148201800Y-116238200D01*
G37*
G36*
X147579800Y-118148200D02*
G01*
X147909800Y-118148200D01*
X147909800Y-117778200D01*
X148151800Y-117778200D01*
X148201800Y-117828200D01*
X148201800Y-118628200D01*
X148151800Y-118678200D01*
X147351800Y-118678200D01*
X147301800Y-118628200D01*
X147301800Y-117828200D01*
X147351800Y-117778200D01*
X147579800Y-117778200D01*
X147579800Y-118148200D01*
G37*
%TO.C,R9*%
G36*
X165329000Y-121037400D02*
G01*
X165329000Y-121837400D01*
X165279000Y-121887400D01*
X164479000Y-121887400D01*
X164429000Y-121837400D01*
X164429000Y-121609400D01*
X164799000Y-121609400D01*
X164799000Y-121279400D01*
X164429000Y-121279400D01*
X164429000Y-121037400D01*
X164479000Y-120987400D01*
X165279000Y-120987400D01*
X165329000Y-121037400D01*
G37*
G36*
X163729000Y-121037400D02*
G01*
X163729000Y-121279400D01*
X163349000Y-121279400D01*
X163349000Y-121609400D01*
X163729000Y-121609400D01*
X163729000Y-121837400D01*
X163679000Y-121887400D01*
X162889000Y-121887400D01*
X162839000Y-121837400D01*
X162839000Y-121037400D01*
X162889000Y-120987400D01*
X163679000Y-120987400D01*
X163729000Y-121037400D01*
G37*
%TO.C,R4*%
G36*
X170078800Y-121037400D02*
G01*
X170078800Y-121837400D01*
X170028800Y-121887400D01*
X169228800Y-121887400D01*
X169178800Y-121837400D01*
X169178800Y-121609400D01*
X169548800Y-121609400D01*
X169548800Y-121279400D01*
X169178800Y-121279400D01*
X169178800Y-121037400D01*
X169228800Y-120987400D01*
X170028800Y-120987400D01*
X170078800Y-121037400D01*
G37*
G36*
X168478800Y-121037400D02*
G01*
X168478800Y-121279400D01*
X168098800Y-121279400D01*
X168098800Y-121609400D01*
X168478800Y-121609400D01*
X168478800Y-121837400D01*
X168428800Y-121887400D01*
X167638800Y-121887400D01*
X167588800Y-121837400D01*
X167588800Y-121037400D01*
X167638800Y-120987400D01*
X168428800Y-120987400D01*
X168478800Y-121037400D01*
G37*
%TO.C,R3*%
G36*
X146767000Y-103483400D02*
G01*
X147097000Y-103483400D01*
X147097000Y-103113400D01*
X147339000Y-103113400D01*
X147389000Y-103163400D01*
X147389000Y-103963400D01*
X147339000Y-104013400D01*
X146539000Y-104013400D01*
X146489000Y-103963400D01*
X146489000Y-103163400D01*
X146539000Y-103113400D01*
X146767000Y-103113400D01*
X146767000Y-103483400D01*
G37*
G36*
X147389000Y-101573400D02*
G01*
X147389000Y-102363400D01*
X147339000Y-102413400D01*
X147097000Y-102413400D01*
X147097000Y-102033400D01*
X146767000Y-102033400D01*
X146767000Y-102413400D01*
X146539000Y-102413400D01*
X146489000Y-102363400D01*
X146489000Y-101573400D01*
X146539000Y-101523400D01*
X147339000Y-101523400D01*
X147389000Y-101573400D01*
G37*
%TO.C,FB1*%
G36*
X165400400Y-106688600D02*
G01*
X165400400Y-107128600D01*
X165015400Y-107596600D01*
X164327400Y-107596600D01*
X164227400Y-107496600D01*
X164227400Y-106319600D01*
X164327400Y-106219600D01*
X165015400Y-106219600D01*
X165400400Y-106688600D01*
G37*
G36*
X167293400Y-106319600D02*
G01*
X167293400Y-107496600D01*
X167193400Y-107596600D01*
X166505400Y-107596600D01*
X166120400Y-107128600D01*
X166120400Y-106688600D01*
X166505400Y-106219600D01*
X167193400Y-106219600D01*
X167293400Y-106319600D01*
G37*
%TO.C,FB2*%
G36*
X145359800Y-106699800D02*
G01*
X145359800Y-107139800D01*
X144974800Y-107607800D01*
X144286800Y-107607800D01*
X144186800Y-107507800D01*
X144186800Y-106330800D01*
X144286800Y-106230800D01*
X144974800Y-106230800D01*
X145359800Y-106699800D01*
G37*
G36*
X147252800Y-106330800D02*
G01*
X147252800Y-107507800D01*
X147152800Y-107607800D01*
X146464800Y-107607800D01*
X146079800Y-107139800D01*
X146079800Y-106699800D01*
X146464800Y-106230800D01*
X147152800Y-106230800D01*
X147252800Y-106330800D01*
G37*
%TO.C,R12*%
G36*
X134680200Y-121113600D02*
G01*
X134680200Y-121913600D01*
X134630200Y-121963600D01*
X133840200Y-121963600D01*
X133790200Y-121913600D01*
X133790200Y-121671600D01*
X134170200Y-121671600D01*
X134170200Y-121341600D01*
X133790200Y-121341600D01*
X133790200Y-121113600D01*
X133840200Y-121063600D01*
X134630200Y-121063600D01*
X134680200Y-121113600D01*
G37*
G36*
X133090200Y-121113600D02*
G01*
X133090200Y-121341600D01*
X132720200Y-121341600D01*
X132720200Y-121671600D01*
X133090200Y-121671600D01*
X133090200Y-121913600D01*
X133040200Y-121963600D01*
X132240200Y-121963600D01*
X132190200Y-121913600D01*
X132190200Y-121113600D01*
X132240200Y-121063600D01*
X133040200Y-121063600D01*
X133090200Y-121113600D01*
G37*
%TO.C,R5*%
G36*
X166651200Y-116305400D02*
G01*
X166651200Y-117095400D01*
X166601200Y-117145400D01*
X166359200Y-117145400D01*
X166359200Y-116765400D01*
X166029200Y-116765400D01*
X166029200Y-117145400D01*
X165801200Y-117145400D01*
X165751200Y-117095400D01*
X165751200Y-116305400D01*
X165801200Y-116255400D01*
X166601200Y-116255400D01*
X166651200Y-116305400D01*
G37*
G36*
X166029200Y-118215400D02*
G01*
X166359200Y-118215400D01*
X166359200Y-117845400D01*
X166601200Y-117845400D01*
X166651200Y-117895400D01*
X166651200Y-118695400D01*
X166601200Y-118745400D01*
X165801200Y-118745400D01*
X165751200Y-118695400D01*
X165751200Y-117895400D01*
X165801200Y-117845400D01*
X166029200Y-117845400D01*
X166029200Y-118215400D01*
G37*
%TO.C,R10*%
G36*
X144052800Y-121012000D02*
G01*
X144052800Y-121812000D01*
X144002800Y-121862000D01*
X143212800Y-121862000D01*
X143162800Y-121812000D01*
X143162800Y-121570000D01*
X143542800Y-121570000D01*
X143542800Y-121240000D01*
X143162800Y-121240000D01*
X143162800Y-121012000D01*
X143212800Y-120962000D01*
X144002800Y-120962000D01*
X144052800Y-121012000D01*
G37*
G36*
X142462800Y-121012000D02*
G01*
X142462800Y-121240000D01*
X142092800Y-121240000D01*
X142092800Y-121570000D01*
X142462800Y-121570000D01*
X142462800Y-121812000D01*
X142412800Y-121862000D01*
X141612800Y-121862000D01*
X141562800Y-121812000D01*
X141562800Y-121012000D01*
X141612800Y-120962000D01*
X142412800Y-120962000D01*
X142462800Y-121012000D01*
G37*
%TD*%
D11*
%TO.C,Y1*%
X123012200Y-116368600D03*
X123012200Y-112050600D03*
%TD*%
D12*
%TO.C,R1*%
X164642800Y-101964600D03*
X164642800Y-103470600D03*
%TD*%
D13*
%TO.C,U1*%
X134510200Y-114717600D03*
X131710200Y-116117600D03*
X131710200Y-113317600D03*
X134510200Y-117517600D03*
X133110200Y-113317600D03*
X133110200Y-117517600D03*
X131710200Y-114717600D03*
X133110200Y-116117600D03*
X130310200Y-114717600D03*
X131710200Y-117517600D03*
X134510200Y-116117600D03*
X130310200Y-113317600D03*
X130310200Y-117517600D03*
X130310200Y-116117600D03*
X133110200Y-114717600D03*
X134510200Y-113317600D03*
D14*
X129660200Y-111980100D03*
X130160200Y-111980100D03*
X130660200Y-111980100D03*
X131160200Y-111980100D03*
X131660200Y-111980100D03*
X132160200Y-111980100D03*
X132660200Y-111980100D03*
X133160200Y-111980100D03*
X133660200Y-111980100D03*
X134160200Y-111980100D03*
X134660200Y-111980100D03*
X135160200Y-111980100D03*
D15*
X135847700Y-112667600D03*
X135847700Y-113167600D03*
X135847700Y-113667600D03*
X135847700Y-114167600D03*
X135847700Y-114667600D03*
X135847700Y-115167600D03*
X135847700Y-115667600D03*
X135847700Y-116167600D03*
X135847700Y-116667600D03*
X135847700Y-117167600D03*
X135847700Y-117667600D03*
X135847700Y-118167600D03*
D14*
X135160200Y-118855100D03*
X134660200Y-118855100D03*
X134160200Y-118855100D03*
X133660200Y-118855100D03*
X133160200Y-118855100D03*
X132660200Y-118855100D03*
X132160200Y-118855100D03*
X131660200Y-118855100D03*
X131160200Y-118855100D03*
X130660200Y-118855100D03*
X130160200Y-118855100D03*
X129660200Y-118855100D03*
D15*
X128972700Y-118167600D03*
X128972700Y-117667600D03*
X128972700Y-117167600D03*
X128972700Y-116667600D03*
X128972700Y-116167600D03*
X128972700Y-115667600D03*
X128972700Y-115167600D03*
X128972700Y-114667600D03*
X128972700Y-114167600D03*
X128972700Y-113667600D03*
X128972700Y-113167600D03*
X128972700Y-112667600D03*
%TD*%
D16*
%TO.C,C3*%
X118948200Y-113385600D03*
X118948200Y-111985600D03*
%TD*%
D17*
%TO.C,J2*%
X187375800Y-116061000D03*
X178735800Y-116061000D03*
D18*
X187375800Y-119761000D03*
X178735800Y-119761000D03*
D19*
X183555800Y-115661000D03*
D20*
X181535800Y-115661000D03*
D21*
X180305800Y-115661000D03*
D19*
X182555800Y-115661000D03*
D20*
X184575800Y-115661000D03*
D21*
X185805800Y-115661000D03*
%TD*%
D22*
%TO.C,J1*%
X158307200Y-101987600D03*
X157807200Y-101987600D03*
X157307200Y-101987600D03*
X156807200Y-101987600D03*
X156307200Y-101987600D03*
X155807200Y-101987600D03*
X155307200Y-101987600D03*
X154807200Y-101987600D03*
X154307200Y-101987600D03*
X153807200Y-101987600D03*
D23*
X160007200Y-104667600D03*
X152107200Y-104667600D03*
%TD*%
D24*
%TO.C,IC1*%
X166028800Y-112257800D03*
X166028800Y-113207800D03*
X166028800Y-114157800D03*
X163528800Y-114157800D03*
X163528800Y-112257800D03*
%TD*%
D12*
%TO.C,R2*%
X144500600Y-102031800D03*
X144500600Y-103537800D03*
%TD*%
%TO.C,R6*%
X163407200Y-116738400D03*
X163407200Y-118244400D03*
%TD*%
D25*
%TO.C,R11*%
X124028200Y-121513600D03*
X122522200Y-121513600D03*
%TD*%
%TO.C,R7*%
X147777200Y-121412000D03*
X146271200Y-121412000D03*
%TD*%
D12*
%TO.C,R8*%
X147751800Y-116680200D03*
X147751800Y-118186200D03*
%TD*%
D25*
%TO.C,R9*%
X163331000Y-121437400D03*
X164837000Y-121437400D03*
%TD*%
D16*
%TO.C,C5*%
X144678400Y-118138400D03*
X144678400Y-116738400D03*
%TD*%
D25*
%TO.C,R4*%
X168080800Y-121437400D03*
X169586800Y-121437400D03*
%TD*%
D12*
%TO.C,R3*%
X146939000Y-102015400D03*
X146939000Y-103521400D03*
%TD*%
D26*
%TO.C,FB1*%
X164794400Y-106908600D03*
X166726400Y-106908600D03*
%TD*%
%TO.C,FB2*%
X144753800Y-106919800D03*
X146685800Y-106919800D03*
%TD*%
D27*
%TO.C,C4*%
X172682600Y-121488200D03*
X174082600Y-121488200D03*
%TD*%
D16*
%TO.C,C6*%
X142138400Y-116738400D03*
X142138400Y-118138400D03*
%TD*%
D28*
%TO.C,IC2*%
X144683000Y-112130800D03*
X144683000Y-113080800D03*
X144683000Y-114030800D03*
X142083000Y-114030800D03*
X142083000Y-113080800D03*
X142083000Y-112130800D03*
%TD*%
D25*
%TO.C,R12*%
X134188200Y-121513600D03*
X132682200Y-121513600D03*
%TD*%
D16*
%TO.C,C7*%
X118948200Y-121451600D03*
X118948200Y-120051600D03*
%TD*%
D27*
%TO.C,C8*%
X127962200Y-121513600D03*
X129362200Y-121513600D03*
%TD*%
D12*
%TO.C,R5*%
X166201200Y-116747400D03*
X166201200Y-118253400D03*
%TD*%
D16*
%TO.C,C9*%
X118948200Y-116049600D03*
X118948200Y-117449600D03*
%TD*%
D29*
%TO.C,IC3*%
X174091600Y-118122400D03*
X172821600Y-118122400D03*
X171551600Y-118122400D03*
X170281600Y-118122400D03*
X170281600Y-112306400D03*
X171551600Y-112306400D03*
X172821600Y-112306400D03*
X174091600Y-112306400D03*
D30*
X172186600Y-115214400D03*
%TD*%
D31*
%TO.C,B1*%
X172008800Y-102133400D03*
X172008800Y-107213400D03*
%TD*%
D16*
%TO.C,C1*%
X166928800Y-102057200D03*
X166928800Y-103457200D03*
%TD*%
%TO.C,C2*%
X147751800Y-113512600D03*
X147751800Y-112112600D03*
%TD*%
D25*
%TO.C,R10*%
X143560800Y-121412000D03*
X142054800Y-121412000D03*
%TD*%
M02*
