%TF.GenerationSoftware,KiCad,Pcbnew,(6.0.2)*%
%TF.CreationDate,2022-03-14T13:43:41+08:00*%
%TF.ProjectId,game,67616d65-2e6b-4696-9361-645f70636258,0.1*%
%TF.SameCoordinates,Original*%
%TF.FileFunction,Legend,Top*%
%TF.FilePolarity,Positive*%
%FSLAX46Y46*%
G04 Gerber Fmt 4.6, Leading zero omitted, Abs format (unit mm)*
G04 Created by KiCad (PCBNEW (6.0.2)) date 2022-03-14 13:43:41*
%MOMM*%
%LPD*%
G01*
G04 APERTURE LIST*
%TA.AperFunction,Profile*%
%ADD10C,0.100000*%
%TD*%
%ADD11C,0.300000*%
%ADD12C,0.100000*%
%ADD13C,0.120000*%
%ADD14C,0.254000*%
%ADD15C,0.010000*%
G04 APERTURE END LIST*
D10*
X109550200Y-123291600D02*
X190830200Y-123291600D01*
X190830200Y-123291600D02*
G75*
G03*
X193116200Y-121005600I0J2286000D01*
G01*
X193116200Y-71475600D02*
X193116200Y-121005600D01*
X107264200Y-71475600D02*
X107264200Y-121005600D01*
X193116200Y-71475600D02*
G75*
G03*
X190830200Y-69189600I-2286000J0D01*
G01*
X109550200Y-69189600D02*
X190830200Y-69189600D01*
X107264200Y-121005600D02*
G75*
G03*
X109550200Y-123291600I2286000J0D01*
G01*
X109550200Y-69189600D02*
G75*
G03*
X107264200Y-71475600I0J-2286000D01*
G01*
D11*
%TO.C,S1*%
X137368200Y-86715600D02*
X137368200Y-86715600D01*
D12*
X118069200Y-91550600D02*
X131169200Y-91550600D01*
D11*
X137169200Y-86715600D02*
X137169200Y-86715600D01*
D12*
X136268200Y-78400600D02*
X136268200Y-91715600D01*
X118069200Y-81715600D02*
X118069200Y-91550600D01*
D11*
X137169200Y-86715600D02*
G75*
G03*
X137368200Y-86715600I99500J0D01*
G01*
X137368200Y-86715600D02*
G75*
G03*
X137169200Y-86715600I-99500J0D01*
G01*
D13*
%TO.C,S3*%
X188498800Y-91383800D02*
X173298800Y-91383800D01*
X173298800Y-91383800D02*
X173298800Y-106583800D01*
X173298800Y-106583800D02*
X188498800Y-106583800D01*
X188498800Y-106583800D02*
X188498800Y-91383800D01*
D14*
%TO.C,LED1*%
X184274000Y-110812200D02*
X184274000Y-109812200D01*
X184274000Y-110307200D02*
X184774000Y-110307200D01*
X186324000Y-109362200D02*
X186324000Y-109362200D01*
X185074000Y-109362200D02*
X186324000Y-109362200D01*
X186324000Y-109362200D02*
X186674000Y-109712200D01*
X186674000Y-110912200D02*
X186674000Y-109712200D01*
X182594000Y-111272200D02*
X182594000Y-109372200D01*
X183934000Y-109372200D02*
X182594000Y-109372200D01*
X186324000Y-111262200D02*
X186674000Y-110912200D01*
X186324000Y-111262200D02*
X186324000Y-111262200D01*
X184074000Y-111262200D02*
X182594000Y-111272200D01*
X185074000Y-111262200D02*
X186324000Y-111262200D01*
%TO.C,LED2*%
X176652600Y-110302200D02*
X177152600Y-110302200D01*
X178702600Y-111257200D02*
X178702600Y-111257200D01*
X178702600Y-109357200D02*
X179052600Y-109707200D01*
X174972600Y-111267200D02*
X174972600Y-109367200D01*
X178702600Y-111257200D02*
X179052600Y-110907200D01*
X178702600Y-109357200D02*
X178702600Y-109357200D01*
X179052600Y-110907200D02*
X179052600Y-109707200D01*
X177452600Y-111257200D02*
X178702600Y-111257200D01*
X176652600Y-110807200D02*
X176652600Y-109807200D01*
X176312600Y-109367200D02*
X174972600Y-109367200D01*
X176452600Y-111257200D02*
X174972600Y-111267200D01*
X177452600Y-109357200D02*
X178702600Y-109357200D01*
D13*
%TO.C,S4*%
X152032200Y-119093600D02*
X160032200Y-119093600D01*
X160032200Y-119093600D02*
X160032200Y-115093600D01*
X160032200Y-115093600D02*
X152032200Y-115093600D01*
X152032200Y-115093600D02*
X152032200Y-119093600D01*
X153532200Y-118093600D02*
X155532200Y-118093600D01*
X155532200Y-118093600D02*
X155532200Y-116093600D01*
X155532200Y-116093600D02*
X153532200Y-116093600D01*
X153532200Y-116093600D02*
X153532200Y-118093600D01*
D15*
%TO.C,Ref\u002A\u002A*%
X176161700Y-70112466D02*
X176436866Y-70112466D01*
X176436866Y-70112466D02*
X176436866Y-70408800D01*
X176436866Y-70408800D02*
X175886533Y-70408800D01*
X175886533Y-70408800D02*
X175886533Y-70133633D01*
X175886533Y-70133633D02*
X175103366Y-70133633D01*
X175103366Y-70133633D02*
X175103366Y-70641633D01*
X175103366Y-70641633D02*
X176161700Y-70641633D01*
X176161700Y-70641633D02*
X176161700Y-70916800D01*
X176161700Y-70916800D02*
X176436866Y-70916800D01*
X176436866Y-70916800D02*
X176436866Y-71467133D01*
X176436866Y-71467133D02*
X176161700Y-71467133D01*
X176161700Y-71467133D02*
X176161700Y-71721133D01*
X176161700Y-71721133D02*
X174828200Y-71721133D01*
X174828200Y-71721133D02*
X174828200Y-71467133D01*
X174828200Y-71467133D02*
X174553033Y-71467133D01*
X174553033Y-71467133D02*
X174553033Y-71170800D01*
X174553033Y-71170800D02*
X175103366Y-71170800D01*
X175103366Y-71170800D02*
X175103366Y-71445966D01*
X175103366Y-71445966D02*
X175886533Y-71445966D01*
X175886533Y-71445966D02*
X175886533Y-70937966D01*
X175886533Y-70937966D02*
X174828200Y-70937966D01*
X174828200Y-70937966D02*
X174828200Y-70662800D01*
X174828200Y-70662800D02*
X174553033Y-70662800D01*
X174553033Y-70662800D02*
X174553033Y-70112466D01*
X174553033Y-70112466D02*
X174828200Y-70112466D01*
X174828200Y-70112466D02*
X174828200Y-69858466D01*
X174828200Y-69858466D02*
X176161700Y-69858466D01*
X176161700Y-69858466D02*
X176161700Y-70112466D01*
X176161700Y-70112466D02*
X176161700Y-70112466D01*
G36*
X176161700Y-70112466D02*
G01*
X176436866Y-70112466D01*
X176436866Y-70408800D01*
X175886533Y-70408800D01*
X175886533Y-70133633D01*
X175103366Y-70133633D01*
X175103366Y-70641633D01*
X176161700Y-70641633D01*
X176161700Y-70916800D01*
X176436866Y-70916800D01*
X176436866Y-71467133D01*
X176161700Y-71467133D01*
X176161700Y-71721133D01*
X174828200Y-71721133D01*
X174828200Y-71467133D01*
X174553033Y-71467133D01*
X174553033Y-71170800D01*
X175103366Y-71170800D01*
X175103366Y-71445966D01*
X175886533Y-71445966D01*
X175886533Y-70937966D01*
X174828200Y-70937966D01*
X174828200Y-70662800D01*
X174553033Y-70662800D01*
X174553033Y-70112466D01*
X174828200Y-70112466D01*
X174828200Y-69858466D01*
X176161700Y-69858466D01*
X176161700Y-70112466D01*
G37*
X176161700Y-70112466D02*
X176436866Y-70112466D01*
X176436866Y-70408800D01*
X175886533Y-70408800D01*
X175886533Y-70133633D01*
X175103366Y-70133633D01*
X175103366Y-70641633D01*
X176161700Y-70641633D01*
X176161700Y-70916800D01*
X176436866Y-70916800D01*
X176436866Y-71467133D01*
X176161700Y-71467133D01*
X176161700Y-71721133D01*
X174828200Y-71721133D01*
X174828200Y-71467133D01*
X174553033Y-71467133D01*
X174553033Y-71170800D01*
X175103366Y-71170800D01*
X175103366Y-71445966D01*
X175886533Y-71445966D01*
X175886533Y-70937966D01*
X174828200Y-70937966D01*
X174828200Y-70662800D01*
X174553033Y-70662800D01*
X174553033Y-70112466D01*
X174828200Y-70112466D01*
X174828200Y-69858466D01*
X176161700Y-69858466D01*
X176161700Y-70112466D01*
X125933200Y-103746300D02*
X126007283Y-103746300D01*
X126007283Y-103746300D02*
X126054716Y-103743736D01*
X126054716Y-103743736D02*
X126075795Y-103727910D01*
X126075795Y-103727910D02*
X126081201Y-103686616D01*
X126081201Y-103686616D02*
X126081366Y-103661633D01*
X126081366Y-103661633D02*
X126083403Y-103607439D01*
X126083403Y-103607439D02*
X126097660Y-103583358D01*
X126097660Y-103583358D02*
X126136359Y-103577170D01*
X126136359Y-103577170D02*
X126166033Y-103576966D01*
X126166033Y-103576966D02*
X126250700Y-103576966D01*
X126250700Y-103576966D02*
X126250700Y-103386466D01*
X126250700Y-103386466D02*
X126462366Y-103386466D01*
X126462366Y-103386466D02*
X126462366Y-103936800D01*
X126462366Y-103936800D02*
X126271866Y-103936800D01*
X126271866Y-103936800D02*
X126271866Y-104127300D01*
X126271866Y-104127300D02*
X126187200Y-104127300D01*
X126187200Y-104127300D02*
X126132990Y-104129542D01*
X126132990Y-104129542D02*
X126108900Y-104143390D01*
X126108900Y-104143390D02*
X126102722Y-104179523D01*
X126102722Y-104179523D02*
X126102533Y-104201383D01*
X126102533Y-104201383D02*
X126102533Y-104275466D01*
X126102533Y-104275466D02*
X126464014Y-104275466D01*
X126464014Y-104275466D02*
X126457899Y-104460675D01*
X126457899Y-104460675D02*
X126451783Y-104645883D01*
X126451783Y-104645883D02*
X125822075Y-104651489D01*
X125822075Y-104651489D02*
X125192366Y-104657096D01*
X125192366Y-104657096D02*
X125192366Y-103767466D01*
X125192366Y-103767466D02*
X125404033Y-103767466D01*
X125404033Y-103767466D02*
X125404033Y-104275466D01*
X125404033Y-104275466D02*
X125912033Y-104275466D01*
X125912033Y-104275466D02*
X125912033Y-103936800D01*
X125912033Y-103936800D02*
X125721533Y-103936800D01*
X125721533Y-103936800D02*
X125721533Y-103767466D01*
X125721533Y-103767466D02*
X125404033Y-103767466D01*
X125404033Y-103767466D02*
X125192366Y-103767466D01*
X125192366Y-103767466D02*
X125192366Y-103576966D01*
X125192366Y-103576966D02*
X125382866Y-103576966D01*
X125382866Y-103576966D02*
X125382866Y-103386466D01*
X125382866Y-103386466D02*
X125933200Y-103386466D01*
X125933200Y-103386466D02*
X125933200Y-103746300D01*
X125933200Y-103746300D02*
X125933200Y-103746300D01*
G36*
X125382866Y-103576966D02*
G01*
X125382866Y-103386466D01*
X125933200Y-103386466D01*
X125933200Y-103746300D01*
X126007283Y-103746300D01*
X126054716Y-103743736D01*
X126075795Y-103727910D01*
X126081201Y-103686616D01*
X126081366Y-103661633D01*
X126083403Y-103607439D01*
X126097660Y-103583358D01*
X126136359Y-103577170D01*
X126166033Y-103576966D01*
X126250700Y-103576966D01*
X126250700Y-103386466D01*
X126462366Y-103386466D01*
X126462366Y-103936800D01*
X126271866Y-103936800D01*
X126271866Y-104127300D01*
X126187200Y-104127300D01*
X126132990Y-104129542D01*
X126108900Y-104143390D01*
X126102722Y-104179523D01*
X126102533Y-104201383D01*
X126102533Y-104275466D01*
X126464014Y-104275466D01*
X126457899Y-104460675D01*
X126451783Y-104645883D01*
X125822075Y-104651489D01*
X125192366Y-104657096D01*
X125192366Y-104275466D01*
X125404033Y-104275466D01*
X125912033Y-104275466D01*
X125912033Y-103936800D01*
X125721533Y-103936800D01*
X125721533Y-103767466D01*
X125404033Y-103767466D01*
X125404033Y-104275466D01*
X125192366Y-104275466D01*
X125192366Y-103576966D01*
X125382866Y-103576966D01*
G37*
X125382866Y-103576966D02*
X125382866Y-103386466D01*
X125933200Y-103386466D01*
X125933200Y-103746300D01*
X126007283Y-103746300D01*
X126054716Y-103743736D01*
X126075795Y-103727910D01*
X126081201Y-103686616D01*
X126081366Y-103661633D01*
X126083403Y-103607439D01*
X126097660Y-103583358D01*
X126136359Y-103577170D01*
X126166033Y-103576966D01*
X126250700Y-103576966D01*
X126250700Y-103386466D01*
X126462366Y-103386466D01*
X126462366Y-103936800D01*
X126271866Y-103936800D01*
X126271866Y-104127300D01*
X126187200Y-104127300D01*
X126132990Y-104129542D01*
X126108900Y-104143390D01*
X126102722Y-104179523D01*
X126102533Y-104201383D01*
X126102533Y-104275466D01*
X126464014Y-104275466D01*
X126457899Y-104460675D01*
X126451783Y-104645883D01*
X125822075Y-104651489D01*
X125192366Y-104657096D01*
X125192366Y-104275466D01*
X125404033Y-104275466D01*
X125912033Y-104275466D01*
X125912033Y-103936800D01*
X125721533Y-103936800D01*
X125721533Y-103767466D01*
X125404033Y-103767466D01*
X125404033Y-104275466D01*
X125192366Y-104275466D01*
X125192366Y-103576966D01*
X125382866Y-103576966D01*
X176161700Y-89649300D02*
X176436866Y-89649300D01*
X176436866Y-89649300D02*
X176436866Y-89945633D01*
X176436866Y-89945633D02*
X175886533Y-89945633D01*
X175886533Y-89945633D02*
X175886533Y-89670466D01*
X175886533Y-89670466D02*
X175103366Y-89670466D01*
X175103366Y-89670466D02*
X175103366Y-90178466D01*
X175103366Y-90178466D02*
X176161700Y-90178466D01*
X176161700Y-90178466D02*
X176161700Y-90453633D01*
X176161700Y-90453633D02*
X176436866Y-90453633D01*
X176436866Y-90453633D02*
X176436866Y-91003966D01*
X176436866Y-91003966D02*
X176161700Y-91003966D01*
X176161700Y-91003966D02*
X176161700Y-91257966D01*
X176161700Y-91257966D02*
X174828200Y-91257966D01*
X174828200Y-91257966D02*
X174828200Y-91003966D01*
X174828200Y-91003966D02*
X174553033Y-91003966D01*
X174553033Y-91003966D02*
X174553033Y-90707633D01*
X174553033Y-90707633D02*
X175103366Y-90707633D01*
X175103366Y-90707633D02*
X175103366Y-90982800D01*
X175103366Y-90982800D02*
X175886533Y-90982800D01*
X175886533Y-90982800D02*
X175886533Y-90474800D01*
X175886533Y-90474800D02*
X174828200Y-90474800D01*
X174828200Y-90474800D02*
X174828200Y-90199633D01*
X174828200Y-90199633D02*
X174553033Y-90199633D01*
X174553033Y-90199633D02*
X174553033Y-89649300D01*
X174553033Y-89649300D02*
X174828200Y-89649300D01*
X174828200Y-89649300D02*
X174828200Y-89395300D01*
X174828200Y-89395300D02*
X176161700Y-89395300D01*
X176161700Y-89395300D02*
X176161700Y-89649300D01*
X176161700Y-89649300D02*
X176161700Y-89649300D01*
G36*
X176161700Y-89649300D02*
G01*
X176436866Y-89649300D01*
X176436866Y-89945633D01*
X175886533Y-89945633D01*
X175886533Y-89670466D01*
X175103366Y-89670466D01*
X175103366Y-90178466D01*
X176161700Y-90178466D01*
X176161700Y-90453633D01*
X176436866Y-90453633D01*
X176436866Y-91003966D01*
X176161700Y-91003966D01*
X176161700Y-91257966D01*
X174828200Y-91257966D01*
X174828200Y-91003966D01*
X174553033Y-91003966D01*
X174553033Y-90707633D01*
X175103366Y-90707633D01*
X175103366Y-90982800D01*
X175886533Y-90982800D01*
X175886533Y-90474800D01*
X174828200Y-90474800D01*
X174828200Y-90199633D01*
X174553033Y-90199633D01*
X174553033Y-89649300D01*
X174828200Y-89649300D01*
X174828200Y-89395300D01*
X176161700Y-89395300D01*
X176161700Y-89649300D01*
G37*
X176161700Y-89649300D02*
X176436866Y-89649300D01*
X176436866Y-89945633D01*
X175886533Y-89945633D01*
X175886533Y-89670466D01*
X175103366Y-89670466D01*
X175103366Y-90178466D01*
X176161700Y-90178466D01*
X176161700Y-90453633D01*
X176436866Y-90453633D01*
X176436866Y-91003966D01*
X176161700Y-91003966D01*
X176161700Y-91257966D01*
X174828200Y-91257966D01*
X174828200Y-91003966D01*
X174553033Y-91003966D01*
X174553033Y-90707633D01*
X175103366Y-90707633D01*
X175103366Y-90982800D01*
X175886533Y-90982800D01*
X175886533Y-90474800D01*
X174828200Y-90474800D01*
X174828200Y-90199633D01*
X174553033Y-90199633D01*
X174553033Y-89649300D01*
X174828200Y-89649300D01*
X174828200Y-89395300D01*
X176161700Y-89395300D01*
X176161700Y-89649300D01*
X177220033Y-70916800D02*
X177474033Y-70916800D01*
X177474033Y-70916800D02*
X177474033Y-69858466D01*
X177474033Y-69858466D02*
X177749200Y-69858466D01*
X177749200Y-69858466D02*
X177749200Y-70916800D01*
X177749200Y-70916800D02*
X178003200Y-70916800D01*
X178003200Y-70916800D02*
X178003200Y-69858466D01*
X178003200Y-69858466D02*
X178553533Y-69858466D01*
X178553533Y-69858466D02*
X178553533Y-71467133D01*
X178553533Y-71467133D02*
X178278366Y-71467133D01*
X178278366Y-71467133D02*
X178278366Y-71721133D01*
X178278366Y-71721133D02*
X178003200Y-71721133D01*
X178003200Y-71721133D02*
X178003200Y-71467133D01*
X178003200Y-71467133D02*
X177728033Y-71467133D01*
X177728033Y-71467133D02*
X177728033Y-71191966D01*
X177728033Y-71191966D02*
X177495200Y-71191966D01*
X177495200Y-71191966D02*
X177495200Y-71467133D01*
X177495200Y-71467133D02*
X177220033Y-71467133D01*
X177220033Y-71467133D02*
X177220033Y-71721133D01*
X177220033Y-71721133D02*
X176944866Y-71721133D01*
X176944866Y-71721133D02*
X176944866Y-71467133D01*
X176944866Y-71467133D02*
X176669700Y-71467133D01*
X176669700Y-71467133D02*
X176669700Y-69858466D01*
X176669700Y-69858466D02*
X177220033Y-69858466D01*
X177220033Y-69858466D02*
X177220033Y-70916800D01*
X177220033Y-70916800D02*
X177220033Y-70916800D01*
G36*
X177220033Y-70916800D02*
G01*
X177474033Y-70916800D01*
X177474033Y-69858466D01*
X177749200Y-69858466D01*
X177749200Y-70916800D01*
X178003200Y-70916800D01*
X178003200Y-69858466D01*
X178553533Y-69858466D01*
X178553533Y-71467133D01*
X178278366Y-71467133D01*
X178278366Y-71721133D01*
X178003200Y-71721133D01*
X178003200Y-71467133D01*
X177728033Y-71467133D01*
X177728033Y-71191966D01*
X177495200Y-71191966D01*
X177495200Y-71467133D01*
X177220033Y-71467133D01*
X177220033Y-71721133D01*
X176944866Y-71721133D01*
X176944866Y-71467133D01*
X176669700Y-71467133D01*
X176669700Y-69858466D01*
X177220033Y-69858466D01*
X177220033Y-70916800D01*
G37*
X177220033Y-70916800D02*
X177474033Y-70916800D01*
X177474033Y-69858466D01*
X177749200Y-69858466D01*
X177749200Y-70916800D01*
X178003200Y-70916800D01*
X178003200Y-69858466D01*
X178553533Y-69858466D01*
X178553533Y-71467133D01*
X178278366Y-71467133D01*
X178278366Y-71721133D01*
X178003200Y-71721133D01*
X178003200Y-71467133D01*
X177728033Y-71467133D01*
X177728033Y-71191966D01*
X177495200Y-71191966D01*
X177495200Y-71467133D01*
X177220033Y-71467133D01*
X177220033Y-71721133D01*
X176944866Y-71721133D01*
X176944866Y-71467133D01*
X176669700Y-71467133D01*
X176669700Y-69858466D01*
X177220033Y-69858466D01*
X177220033Y-70916800D01*
X125933200Y-104889300D02*
X125935236Y-104943493D01*
X125935236Y-104943493D02*
X125949494Y-104967574D01*
X125949494Y-104967574D02*
X125988192Y-104973763D01*
X125988192Y-104973763D02*
X126017866Y-104973966D01*
X126017866Y-104973966D02*
X126102533Y-104973966D01*
X126102533Y-104973966D02*
X126102533Y-105693633D01*
X126102533Y-105693633D02*
X126462366Y-105693633D01*
X126462366Y-105693633D02*
X126462366Y-106053466D01*
X126462366Y-106053466D02*
X125192366Y-106053466D01*
X125192366Y-106053466D02*
X125192366Y-105185633D01*
X125192366Y-105185633D02*
X125404033Y-105185633D01*
X125404033Y-105185633D02*
X125404033Y-105693633D01*
X125404033Y-105693633D02*
X125912033Y-105693633D01*
X125912033Y-105693633D02*
X125912033Y-105185633D01*
X125912033Y-105185633D02*
X125404033Y-105185633D01*
X125404033Y-105185633D02*
X125192366Y-105185633D01*
X125192366Y-105185633D02*
X125192366Y-104973966D01*
X125192366Y-104973966D02*
X125382866Y-104973966D01*
X125382866Y-104973966D02*
X125382866Y-104804633D01*
X125382866Y-104804633D02*
X125933200Y-104804633D01*
X125933200Y-104804633D02*
X125933200Y-104889300D01*
X125933200Y-104889300D02*
X125933200Y-104889300D01*
G36*
X125382866Y-104973966D02*
G01*
X125382866Y-104804633D01*
X125933200Y-104804633D01*
X125933200Y-104889300D01*
X125935236Y-104943493D01*
X125949494Y-104967574D01*
X125988192Y-104973763D01*
X126017866Y-104973966D01*
X126102533Y-104973966D01*
X126102533Y-105693633D01*
X126462366Y-105693633D01*
X126462366Y-106053466D01*
X125192366Y-106053466D01*
X125192366Y-105693633D01*
X125404033Y-105693633D01*
X125912033Y-105693633D01*
X125912033Y-105185633D01*
X125404033Y-105185633D01*
X125404033Y-105693633D01*
X125192366Y-105693633D01*
X125192366Y-104973966D01*
X125382866Y-104973966D01*
G37*
X125382866Y-104973966D02*
X125382866Y-104804633D01*
X125933200Y-104804633D01*
X125933200Y-104889300D01*
X125935236Y-104943493D01*
X125949494Y-104967574D01*
X125988192Y-104973763D01*
X126017866Y-104973966D01*
X126102533Y-104973966D01*
X126102533Y-105693633D01*
X126462366Y-105693633D01*
X126462366Y-106053466D01*
X125192366Y-106053466D01*
X125192366Y-105693633D01*
X125404033Y-105693633D01*
X125912033Y-105693633D01*
X125912033Y-105185633D01*
X125404033Y-105185633D01*
X125404033Y-105693633D01*
X125192366Y-105693633D01*
X125192366Y-104973966D01*
X125382866Y-104973966D01*
X134675033Y-103746300D02*
X134759700Y-103746300D01*
X134759700Y-103746300D02*
X134813893Y-103744263D01*
X134813893Y-103744263D02*
X134837974Y-103730005D01*
X134837974Y-103730005D02*
X134844163Y-103691307D01*
X134844163Y-103691307D02*
X134844366Y-103661633D01*
X134844366Y-103661633D02*
X134846403Y-103607439D01*
X134846403Y-103607439D02*
X134860660Y-103583358D01*
X134860660Y-103583358D02*
X134899359Y-103577170D01*
X134899359Y-103577170D02*
X134929033Y-103576966D01*
X134929033Y-103576966D02*
X135013700Y-103576966D01*
X135013700Y-103576966D02*
X135013700Y-103386466D01*
X135013700Y-103386466D02*
X135204200Y-103386466D01*
X135204200Y-103386466D02*
X135204200Y-103936800D01*
X135204200Y-103936800D02*
X135034866Y-103936800D01*
X135034866Y-103936800D02*
X135034866Y-104127300D01*
X135034866Y-104127300D02*
X134950200Y-104127300D01*
X134950200Y-104127300D02*
X134895990Y-104129542D01*
X134895990Y-104129542D02*
X134871900Y-104143390D01*
X134871900Y-104143390D02*
X134865722Y-104179523D01*
X134865722Y-104179523D02*
X134865533Y-104201383D01*
X134865533Y-104201383D02*
X134865533Y-104275466D01*
X134865533Y-104275466D02*
X135204200Y-104275466D01*
X135204200Y-104275466D02*
X135204200Y-104656466D01*
X135204200Y-104656466D02*
X133955366Y-104656466D01*
X133955366Y-104656466D02*
X133955366Y-103767466D01*
X133955366Y-103767466D02*
X134145866Y-103767466D01*
X134145866Y-103767466D02*
X134145866Y-104275466D01*
X134145866Y-104275466D02*
X134653866Y-104275466D01*
X134653866Y-104275466D02*
X134653866Y-103936800D01*
X134653866Y-103936800D02*
X134569200Y-103936800D01*
X134569200Y-103936800D02*
X134515006Y-103934763D01*
X134515006Y-103934763D02*
X134490925Y-103920505D01*
X134490925Y-103920505D02*
X134484736Y-103881807D01*
X134484736Y-103881807D02*
X134484533Y-103852133D01*
X134484533Y-103852133D02*
X134484533Y-103767466D01*
X134484533Y-103767466D02*
X134145866Y-103767466D01*
X134145866Y-103767466D02*
X133955366Y-103767466D01*
X133955366Y-103767466D02*
X133955366Y-103576966D01*
X133955366Y-103576966D02*
X134124700Y-103576966D01*
X134124700Y-103576966D02*
X134124700Y-103386466D01*
X134124700Y-103386466D02*
X134675033Y-103386466D01*
X134675033Y-103386466D02*
X134675033Y-103746300D01*
X134675033Y-103746300D02*
X134675033Y-103746300D01*
G36*
X134124700Y-103576966D02*
G01*
X134124700Y-103386466D01*
X134675033Y-103386466D01*
X134675033Y-103746300D01*
X134759700Y-103746300D01*
X134813893Y-103744263D01*
X134837974Y-103730005D01*
X134844163Y-103691307D01*
X134844366Y-103661633D01*
X134846403Y-103607439D01*
X134860660Y-103583358D01*
X134899359Y-103577170D01*
X134929033Y-103576966D01*
X135013700Y-103576966D01*
X135013700Y-103386466D01*
X135204200Y-103386466D01*
X135204200Y-103936800D01*
X135034866Y-103936800D01*
X135034866Y-104127300D01*
X134950200Y-104127300D01*
X134895990Y-104129542D01*
X134871900Y-104143390D01*
X134865722Y-104179523D01*
X134865533Y-104201383D01*
X134865533Y-104275466D01*
X135204200Y-104275466D01*
X135204200Y-104656466D01*
X133955366Y-104656466D01*
X133955366Y-104275466D01*
X134145866Y-104275466D01*
X134653866Y-104275466D01*
X134653866Y-103936800D01*
X134569200Y-103936800D01*
X134515006Y-103934763D01*
X134490925Y-103920505D01*
X134484736Y-103881807D01*
X134484533Y-103852133D01*
X134484533Y-103767466D01*
X134145866Y-103767466D01*
X134145866Y-104275466D01*
X133955366Y-104275466D01*
X133955366Y-103576966D01*
X134124700Y-103576966D01*
G37*
X134124700Y-103576966D02*
X134124700Y-103386466D01*
X134675033Y-103386466D01*
X134675033Y-103746300D01*
X134759700Y-103746300D01*
X134813893Y-103744263D01*
X134837974Y-103730005D01*
X134844163Y-103691307D01*
X134844366Y-103661633D01*
X134846403Y-103607439D01*
X134860660Y-103583358D01*
X134899359Y-103577170D01*
X134929033Y-103576966D01*
X135013700Y-103576966D01*
X135013700Y-103386466D01*
X135204200Y-103386466D01*
X135204200Y-103936800D01*
X135034866Y-103936800D01*
X135034866Y-104127300D01*
X134950200Y-104127300D01*
X134895990Y-104129542D01*
X134871900Y-104143390D01*
X134865722Y-104179523D01*
X134865533Y-104201383D01*
X134865533Y-104275466D01*
X135204200Y-104275466D01*
X135204200Y-104656466D01*
X133955366Y-104656466D01*
X133955366Y-104275466D01*
X134145866Y-104275466D01*
X134653866Y-104275466D01*
X134653866Y-103936800D01*
X134569200Y-103936800D01*
X134515006Y-103934763D01*
X134490925Y-103920505D01*
X134484736Y-103881807D01*
X134484533Y-103852133D01*
X134484533Y-103767466D01*
X134145866Y-103767466D01*
X134145866Y-104275466D01*
X133955366Y-104275466D01*
X133955366Y-103576966D01*
X134124700Y-103576966D01*
X125742700Y-100931133D02*
X126462366Y-100931133D01*
X126462366Y-100931133D02*
X126462366Y-101290966D01*
X126462366Y-101290966D02*
X125742700Y-101290966D01*
X125742700Y-101290966D02*
X125742700Y-101650800D01*
X125742700Y-101650800D02*
X125552200Y-101650800D01*
X125552200Y-101650800D02*
X125552200Y-101290966D01*
X125552200Y-101290966D02*
X125192366Y-101290966D01*
X125192366Y-101290966D02*
X125192366Y-100931133D01*
X125192366Y-100931133D02*
X125552200Y-100931133D01*
X125552200Y-100931133D02*
X125552200Y-100571300D01*
X125552200Y-100571300D02*
X125742700Y-100571300D01*
X125742700Y-100571300D02*
X125742700Y-100931133D01*
X125742700Y-100931133D02*
X125742700Y-100931133D01*
G36*
X125742700Y-100931133D02*
G01*
X126462366Y-100931133D01*
X126462366Y-101290966D01*
X125742700Y-101290966D01*
X125742700Y-101650800D01*
X125552200Y-101650800D01*
X125552200Y-101290966D01*
X125192366Y-101290966D01*
X125192366Y-100931133D01*
X125552200Y-100931133D01*
X125552200Y-100571300D01*
X125742700Y-100571300D01*
X125742700Y-100931133D01*
G37*
X125742700Y-100931133D02*
X126462366Y-100931133D01*
X126462366Y-101290966D01*
X125742700Y-101290966D01*
X125742700Y-101650800D01*
X125552200Y-101650800D01*
X125552200Y-101290966D01*
X125192366Y-101290966D01*
X125192366Y-100931133D01*
X125552200Y-100931133D01*
X125552200Y-100571300D01*
X125742700Y-100571300D01*
X125742700Y-100931133D01*
X134145866Y-102158800D02*
X134336366Y-102158800D01*
X134336366Y-102158800D02*
X134336366Y-102243466D01*
X134336366Y-102243466D02*
X134338403Y-102297660D01*
X134338403Y-102297660D02*
X134352660Y-102321741D01*
X134352660Y-102321741D02*
X134391359Y-102327929D01*
X134391359Y-102327929D02*
X134421033Y-102328133D01*
X134421033Y-102328133D02*
X134505700Y-102328133D01*
X134505700Y-102328133D02*
X134505700Y-102423383D01*
X134505700Y-102423383D02*
X134507281Y-102481909D01*
X134507281Y-102481909D02*
X134517999Y-102509622D01*
X134517999Y-102509622D02*
X134546815Y-102518045D01*
X134546815Y-102518045D02*
X134579783Y-102518633D01*
X134579783Y-102518633D02*
X134625303Y-102516599D01*
X134625303Y-102516599D02*
X134646858Y-102502819D01*
X134646858Y-102502819D02*
X134653409Y-102465769D01*
X134653409Y-102465769D02*
X134653866Y-102423383D01*
X134653866Y-102423383D02*
X134653866Y-102328133D01*
X134653866Y-102328133D02*
X134844366Y-102328133D01*
X134844366Y-102328133D02*
X134844366Y-102243466D01*
X134844366Y-102243466D02*
X134846403Y-102189273D01*
X134846403Y-102189273D02*
X134860660Y-102165192D01*
X134860660Y-102165192D02*
X134899359Y-102159003D01*
X134899359Y-102159003D02*
X134929033Y-102158800D01*
X134929033Y-102158800D02*
X134983226Y-102156763D01*
X134983226Y-102156763D02*
X135007307Y-102142505D01*
X135007307Y-102142505D02*
X135013496Y-102103807D01*
X135013496Y-102103807D02*
X135013700Y-102074133D01*
X135013700Y-102074133D02*
X135013700Y-101989466D01*
X135013700Y-101989466D02*
X135204200Y-101989466D01*
X135204200Y-101989466D02*
X135204200Y-102539800D01*
X135204200Y-102539800D02*
X135119533Y-102539800D01*
X135119533Y-102539800D02*
X135065339Y-102541836D01*
X135065339Y-102541836D02*
X135041258Y-102556094D01*
X135041258Y-102556094D02*
X135035070Y-102594792D01*
X135035070Y-102594792D02*
X135034866Y-102624466D01*
X135034866Y-102624466D02*
X135032829Y-102678660D01*
X135032829Y-102678660D02*
X135018572Y-102702741D01*
X135018572Y-102702741D02*
X134979874Y-102708929D01*
X134979874Y-102708929D02*
X134950200Y-102709133D01*
X134950200Y-102709133D02*
X134895990Y-102711376D01*
X134895990Y-102711376D02*
X134871900Y-102725224D01*
X134871900Y-102725224D02*
X134865722Y-102761356D01*
X134865722Y-102761356D02*
X134865533Y-102783216D01*
X134865533Y-102783216D02*
X134865533Y-102857300D01*
X134865533Y-102857300D02*
X135204200Y-102857300D01*
X135204200Y-102857300D02*
X135204200Y-103238300D01*
X135204200Y-103238300D02*
X133955366Y-103238300D01*
X133955366Y-103238300D02*
X133955366Y-102857300D01*
X133955366Y-102857300D02*
X134484533Y-102857300D01*
X134484533Y-102857300D02*
X134484533Y-102783216D01*
X134484533Y-102783216D02*
X134481970Y-102735783D01*
X134481970Y-102735783D02*
X134466143Y-102714704D01*
X134466143Y-102714704D02*
X134424849Y-102709298D01*
X134424849Y-102709298D02*
X134399866Y-102709133D01*
X134399866Y-102709133D02*
X134345672Y-102707074D01*
X134345672Y-102707074D02*
X134321592Y-102692869D01*
X134321592Y-102692869D02*
X134315403Y-102654473D01*
X134315403Y-102654473D02*
X134315200Y-102625683D01*
X134315200Y-102625683D02*
X134313127Y-102573265D01*
X134313127Y-102573265D02*
X134299032Y-102548197D01*
X134299032Y-102548197D02*
X134261101Y-102538666D01*
X134261101Y-102538666D02*
X134225241Y-102535725D01*
X134225241Y-102535725D02*
X134168738Y-102529574D01*
X134168738Y-102529574D02*
X134141796Y-102513596D01*
X134141796Y-102513596D02*
X134131739Y-102475114D01*
X134131739Y-102475114D02*
X134128774Y-102439258D01*
X134128774Y-102439258D02*
X134122775Y-102382913D01*
X134122775Y-102382913D02*
X134107824Y-102356989D01*
X134107824Y-102356989D02*
X134072108Y-102349673D01*
X134072108Y-102349673D02*
X134038816Y-102349300D01*
X134038816Y-102349300D02*
X133955366Y-102349300D01*
X133955366Y-102349300D02*
X133955366Y-101989466D01*
X133955366Y-101989466D02*
X134145866Y-101989466D01*
X134145866Y-101989466D02*
X134145866Y-102158800D01*
X134145866Y-102158800D02*
X134145866Y-102158800D01*
G36*
X134145866Y-102158800D02*
G01*
X134336366Y-102158800D01*
X134336366Y-102243466D01*
X134338403Y-102297660D01*
X134352660Y-102321741D01*
X134391359Y-102327929D01*
X134421033Y-102328133D01*
X134505700Y-102328133D01*
X134505700Y-102423383D01*
X134507281Y-102481909D01*
X134517999Y-102509622D01*
X134546815Y-102518045D01*
X134579783Y-102518633D01*
X134625303Y-102516599D01*
X134646858Y-102502819D01*
X134653409Y-102465769D01*
X134653866Y-102423383D01*
X134653866Y-102328133D01*
X134844366Y-102328133D01*
X134844366Y-102243466D01*
X134846403Y-102189273D01*
X134860660Y-102165192D01*
X134899359Y-102159003D01*
X134929033Y-102158800D01*
X134983226Y-102156763D01*
X135007307Y-102142505D01*
X135013496Y-102103807D01*
X135013700Y-102074133D01*
X135013700Y-101989466D01*
X135204200Y-101989466D01*
X135204200Y-102539800D01*
X135119533Y-102539800D01*
X135065339Y-102541836D01*
X135041258Y-102556094D01*
X135035070Y-102594792D01*
X135034866Y-102624466D01*
X135032829Y-102678660D01*
X135018572Y-102702741D01*
X134979874Y-102708929D01*
X134950200Y-102709133D01*
X134895990Y-102711376D01*
X134871900Y-102725224D01*
X134865722Y-102761356D01*
X134865533Y-102783216D01*
X134865533Y-102857300D01*
X135204200Y-102857300D01*
X135204200Y-103238300D01*
X133955366Y-103238300D01*
X133955366Y-102857300D01*
X134484533Y-102857300D01*
X134484533Y-102783216D01*
X134481970Y-102735783D01*
X134466143Y-102714704D01*
X134424849Y-102709298D01*
X134399866Y-102709133D01*
X134345672Y-102707074D01*
X134321592Y-102692869D01*
X134315403Y-102654473D01*
X134315200Y-102625683D01*
X134313127Y-102573265D01*
X134299032Y-102548197D01*
X134261101Y-102538666D01*
X134225241Y-102535725D01*
X134168738Y-102529574D01*
X134141796Y-102513596D01*
X134131739Y-102475114D01*
X134128774Y-102439258D01*
X134122775Y-102382913D01*
X134107824Y-102356989D01*
X134072108Y-102349673D01*
X134038816Y-102349300D01*
X133955366Y-102349300D01*
X133955366Y-101989466D01*
X134145866Y-101989466D01*
X134145866Y-102158800D01*
G37*
X134145866Y-102158800D02*
X134336366Y-102158800D01*
X134336366Y-102243466D01*
X134338403Y-102297660D01*
X134352660Y-102321741D01*
X134391359Y-102327929D01*
X134421033Y-102328133D01*
X134505700Y-102328133D01*
X134505700Y-102423383D01*
X134507281Y-102481909D01*
X134517999Y-102509622D01*
X134546815Y-102518045D01*
X134579783Y-102518633D01*
X134625303Y-102516599D01*
X134646858Y-102502819D01*
X134653409Y-102465769D01*
X134653866Y-102423383D01*
X134653866Y-102328133D01*
X134844366Y-102328133D01*
X134844366Y-102243466D01*
X134846403Y-102189273D01*
X134860660Y-102165192D01*
X134899359Y-102159003D01*
X134929033Y-102158800D01*
X134983226Y-102156763D01*
X135007307Y-102142505D01*
X135013496Y-102103807D01*
X135013700Y-102074133D01*
X135013700Y-101989466D01*
X135204200Y-101989466D01*
X135204200Y-102539800D01*
X135119533Y-102539800D01*
X135065339Y-102541836D01*
X135041258Y-102556094D01*
X135035070Y-102594792D01*
X135034866Y-102624466D01*
X135032829Y-102678660D01*
X135018572Y-102702741D01*
X134979874Y-102708929D01*
X134950200Y-102709133D01*
X134895990Y-102711376D01*
X134871900Y-102725224D01*
X134865722Y-102761356D01*
X134865533Y-102783216D01*
X134865533Y-102857300D01*
X135204200Y-102857300D01*
X135204200Y-103238300D01*
X133955366Y-103238300D01*
X133955366Y-102857300D01*
X134484533Y-102857300D01*
X134484533Y-102783216D01*
X134481970Y-102735783D01*
X134466143Y-102714704D01*
X134424849Y-102709298D01*
X134399866Y-102709133D01*
X134345672Y-102707074D01*
X134321592Y-102692869D01*
X134315403Y-102654473D01*
X134315200Y-102625683D01*
X134313127Y-102573265D01*
X134299032Y-102548197D01*
X134261101Y-102538666D01*
X134225241Y-102535725D01*
X134168738Y-102529574D01*
X134141796Y-102513596D01*
X134131739Y-102475114D01*
X134128774Y-102439258D01*
X134122775Y-102382913D01*
X134107824Y-102356989D01*
X134072108Y-102349673D01*
X134038816Y-102349300D01*
X133955366Y-102349300D01*
X133955366Y-101989466D01*
X134145866Y-101989466D01*
X134145866Y-102158800D01*
X181453366Y-89924466D02*
X182511700Y-89924466D01*
X182511700Y-89924466D02*
X182511700Y-90178466D01*
X182511700Y-90178466D02*
X182786866Y-90178466D01*
X182786866Y-90178466D02*
X182786866Y-91003966D01*
X182786866Y-91003966D02*
X182511700Y-91003966D01*
X182511700Y-91003966D02*
X182511700Y-91257966D01*
X182511700Y-91257966D02*
X181178200Y-91257966D01*
X181178200Y-91257966D02*
X181178200Y-91003966D01*
X181178200Y-91003966D02*
X180903033Y-91003966D01*
X180903033Y-91003966D02*
X180903033Y-90199633D01*
X180903033Y-90199633D02*
X181453366Y-90199633D01*
X181453366Y-90199633D02*
X181453366Y-90982800D01*
X181453366Y-90982800D02*
X182236533Y-90982800D01*
X182236533Y-90982800D02*
X182236533Y-90199633D01*
X182236533Y-90199633D02*
X181453366Y-90199633D01*
X181453366Y-90199633D02*
X180903033Y-90199633D01*
X180903033Y-90199633D02*
X180903033Y-89395300D01*
X180903033Y-89395300D02*
X181453366Y-89395300D01*
X181453366Y-89395300D02*
X181453366Y-89924466D01*
X181453366Y-89924466D02*
X181453366Y-89924466D01*
G36*
X181453366Y-89395300D02*
G01*
X181453366Y-89924466D01*
X182511700Y-89924466D01*
X182511700Y-90178466D01*
X182786866Y-90178466D01*
X182786866Y-91003966D01*
X182511700Y-91003966D01*
X182511700Y-91257966D01*
X181178200Y-91257966D01*
X181178200Y-91003966D01*
X180903033Y-91003966D01*
X180903033Y-90982800D01*
X181453366Y-90982800D01*
X182236533Y-90982800D01*
X182236533Y-90199633D01*
X181453366Y-90199633D01*
X181453366Y-90982800D01*
X180903033Y-90982800D01*
X180903033Y-89395300D01*
X181453366Y-89395300D01*
G37*
X181453366Y-89395300D02*
X181453366Y-89924466D01*
X182511700Y-89924466D01*
X182511700Y-90178466D01*
X182786866Y-90178466D01*
X182786866Y-91003966D01*
X182511700Y-91003966D01*
X182511700Y-91257966D01*
X181178200Y-91257966D01*
X181178200Y-91003966D01*
X180903033Y-91003966D01*
X180903033Y-90982800D01*
X181453366Y-90982800D01*
X182236533Y-90982800D01*
X182236533Y-90199633D01*
X181453366Y-90199633D01*
X181453366Y-90982800D01*
X180903033Y-90982800D01*
X180903033Y-89395300D01*
X181453366Y-89395300D01*
X115879033Y-102687966D02*
X115963700Y-102687966D01*
X115963700Y-102687966D02*
X116017893Y-102690003D01*
X116017893Y-102690003D02*
X116041974Y-102704260D01*
X116041974Y-102704260D02*
X116048163Y-102742959D01*
X116048163Y-102742959D02*
X116048366Y-102772633D01*
X116048366Y-102772633D02*
X116048366Y-102857300D01*
X116048366Y-102857300D02*
X116556366Y-102857300D01*
X116556366Y-102857300D02*
X116556366Y-102772633D01*
X116556366Y-102772633D02*
X116558403Y-102718439D01*
X116558403Y-102718439D02*
X116572660Y-102694358D01*
X116572660Y-102694358D02*
X116611359Y-102688170D01*
X116611359Y-102688170D02*
X116641033Y-102687966D01*
X116641033Y-102687966D02*
X116725700Y-102687966D01*
X116725700Y-102687966D02*
X116725700Y-102349300D01*
X116725700Y-102349300D02*
X116408200Y-102349300D01*
X116408200Y-102349300D02*
X116408200Y-102542119D01*
X116408200Y-102542119D02*
X116307658Y-102535668D01*
X116307658Y-102535668D02*
X116207116Y-102529216D01*
X116207116Y-102529216D02*
X116195268Y-101989466D01*
X116195268Y-101989466D02*
X116937366Y-101989466D01*
X116937366Y-101989466D02*
X116937366Y-102878466D01*
X116937366Y-102878466D02*
X116746866Y-102878466D01*
X116746866Y-102878466D02*
X116746866Y-103068966D01*
X116746866Y-103068966D02*
X116662200Y-103068966D01*
X116662200Y-103068966D02*
X116608006Y-103071003D01*
X116608006Y-103071003D02*
X116583925Y-103085260D01*
X116583925Y-103085260D02*
X116577736Y-103123959D01*
X116577736Y-103123959D02*
X116577533Y-103153633D01*
X116577533Y-103153633D02*
X116577533Y-103238300D01*
X116577533Y-103238300D02*
X116027200Y-103238300D01*
X116027200Y-103238300D02*
X116027200Y-103153633D01*
X116027200Y-103153633D02*
X116025163Y-103099439D01*
X116025163Y-103099439D02*
X116010905Y-103075358D01*
X116010905Y-103075358D02*
X115972207Y-103069170D01*
X115972207Y-103069170D02*
X115942533Y-103068966D01*
X115942533Y-103068966D02*
X115857866Y-103068966D01*
X115857866Y-103068966D02*
X115857866Y-102878466D01*
X115857866Y-102878466D02*
X115667366Y-102878466D01*
X115667366Y-102878466D02*
X115667366Y-101989466D01*
X115667366Y-101989466D02*
X115879033Y-101989466D01*
X115879033Y-101989466D02*
X115879033Y-102687966D01*
X115879033Y-102687966D02*
X115879033Y-102687966D01*
G36*
X115879033Y-102687966D02*
G01*
X115963700Y-102687966D01*
X116017893Y-102690003D01*
X116041974Y-102704260D01*
X116048163Y-102742959D01*
X116048366Y-102772633D01*
X116048366Y-102857300D01*
X116556366Y-102857300D01*
X116556366Y-102772633D01*
X116558403Y-102718439D01*
X116572660Y-102694358D01*
X116611359Y-102688170D01*
X116641033Y-102687966D01*
X116725700Y-102687966D01*
X116725700Y-102349300D01*
X116408200Y-102349300D01*
X116408200Y-102542119D01*
X116307658Y-102535668D01*
X116207116Y-102529216D01*
X116195268Y-101989466D01*
X116937366Y-101989466D01*
X116937366Y-102878466D01*
X116746866Y-102878466D01*
X116746866Y-103068966D01*
X116662200Y-103068966D01*
X116608006Y-103071003D01*
X116583925Y-103085260D01*
X116577736Y-103123959D01*
X116577533Y-103153633D01*
X116577533Y-103238300D01*
X116027200Y-103238300D01*
X116027200Y-103153633D01*
X116025163Y-103099439D01*
X116010905Y-103075358D01*
X115972207Y-103069170D01*
X115942533Y-103068966D01*
X115857866Y-103068966D01*
X115857866Y-102878466D01*
X115667366Y-102878466D01*
X115667366Y-101989466D01*
X115879033Y-101989466D01*
X115879033Y-102687966D01*
G37*
X115879033Y-102687966D02*
X115963700Y-102687966D01*
X116017893Y-102690003D01*
X116041974Y-102704260D01*
X116048163Y-102742959D01*
X116048366Y-102772633D01*
X116048366Y-102857300D01*
X116556366Y-102857300D01*
X116556366Y-102772633D01*
X116558403Y-102718439D01*
X116572660Y-102694358D01*
X116611359Y-102688170D01*
X116641033Y-102687966D01*
X116725700Y-102687966D01*
X116725700Y-102349300D01*
X116408200Y-102349300D01*
X116408200Y-102542119D01*
X116307658Y-102535668D01*
X116207116Y-102529216D01*
X116195268Y-101989466D01*
X116937366Y-101989466D01*
X116937366Y-102878466D01*
X116746866Y-102878466D01*
X116746866Y-103068966D01*
X116662200Y-103068966D01*
X116608006Y-103071003D01*
X116583925Y-103085260D01*
X116577736Y-103123959D01*
X116577533Y-103153633D01*
X116577533Y-103238300D01*
X116027200Y-103238300D01*
X116027200Y-103153633D01*
X116025163Y-103099439D01*
X116010905Y-103075358D01*
X115972207Y-103069170D01*
X115942533Y-103068966D01*
X115857866Y-103068966D01*
X115857866Y-102878466D01*
X115667366Y-102878466D01*
X115667366Y-101989466D01*
X115879033Y-101989466D01*
X115879033Y-102687966D01*
X177220033Y-90453633D02*
X177474033Y-90453633D01*
X177474033Y-90453633D02*
X177474033Y-89395300D01*
X177474033Y-89395300D02*
X177749200Y-89395300D01*
X177749200Y-89395300D02*
X177749200Y-90453633D01*
X177749200Y-90453633D02*
X178003200Y-90453633D01*
X178003200Y-90453633D02*
X178003200Y-89395300D01*
X178003200Y-89395300D02*
X178553533Y-89395300D01*
X178553533Y-89395300D02*
X178553533Y-91003966D01*
X178553533Y-91003966D02*
X178278366Y-91003966D01*
X178278366Y-91003966D02*
X178278366Y-91257966D01*
X178278366Y-91257966D02*
X178003200Y-91257966D01*
X178003200Y-91257966D02*
X178003200Y-91003966D01*
X178003200Y-91003966D02*
X177728033Y-91003966D01*
X177728033Y-91003966D02*
X177728033Y-90728800D01*
X177728033Y-90728800D02*
X177495200Y-90728800D01*
X177495200Y-90728800D02*
X177495200Y-91003966D01*
X177495200Y-91003966D02*
X177220033Y-91003966D01*
X177220033Y-91003966D02*
X177220033Y-91257966D01*
X177220033Y-91257966D02*
X176944866Y-91257966D01*
X176944866Y-91257966D02*
X176944866Y-91003966D01*
X176944866Y-91003966D02*
X176669700Y-91003966D01*
X176669700Y-91003966D02*
X176669700Y-89395300D01*
X176669700Y-89395300D02*
X177220033Y-89395300D01*
X177220033Y-89395300D02*
X177220033Y-90453633D01*
X177220033Y-90453633D02*
X177220033Y-90453633D01*
G36*
X177220033Y-90453633D02*
G01*
X177474033Y-90453633D01*
X177474033Y-89395300D01*
X177749200Y-89395300D01*
X177749200Y-90453633D01*
X178003200Y-90453633D01*
X178003200Y-89395300D01*
X178553533Y-89395300D01*
X178553533Y-91003966D01*
X178278366Y-91003966D01*
X178278366Y-91257966D01*
X178003200Y-91257966D01*
X178003200Y-91003966D01*
X177728033Y-91003966D01*
X177728033Y-90728800D01*
X177495200Y-90728800D01*
X177495200Y-91003966D01*
X177220033Y-91003966D01*
X177220033Y-91257966D01*
X176944866Y-91257966D01*
X176944866Y-91003966D01*
X176669700Y-91003966D01*
X176669700Y-89395300D01*
X177220033Y-89395300D01*
X177220033Y-90453633D01*
G37*
X177220033Y-90453633D02*
X177474033Y-90453633D01*
X177474033Y-89395300D01*
X177749200Y-89395300D01*
X177749200Y-90453633D01*
X178003200Y-90453633D01*
X178003200Y-89395300D01*
X178553533Y-89395300D01*
X178553533Y-91003966D01*
X178278366Y-91003966D01*
X178278366Y-91257966D01*
X178003200Y-91257966D01*
X178003200Y-91003966D01*
X177728033Y-91003966D01*
X177728033Y-90728800D01*
X177495200Y-90728800D01*
X177495200Y-91003966D01*
X177220033Y-91003966D01*
X177220033Y-91257966D01*
X176944866Y-91257966D01*
X176944866Y-91003966D01*
X176669700Y-91003966D01*
X176669700Y-89395300D01*
X177220033Y-89395300D01*
X177220033Y-90453633D01*
X116937366Y-103767466D02*
X116408200Y-103767466D01*
X116408200Y-103767466D02*
X116408200Y-104275466D01*
X116408200Y-104275466D02*
X116937366Y-104275466D01*
X116937366Y-104275466D02*
X116937366Y-104656466D01*
X116937366Y-104656466D02*
X116316477Y-104656466D01*
X116316477Y-104656466D02*
X116158410Y-104656003D01*
X116158410Y-104656003D02*
X116014222Y-104654692D01*
X116014222Y-104654692D02*
X115889307Y-104652654D01*
X115889307Y-104652654D02*
X115789055Y-104650008D01*
X115789055Y-104650008D02*
X115718858Y-104646875D01*
X115718858Y-104646875D02*
X115684109Y-104643374D01*
X115684109Y-104643374D02*
X115681477Y-104642355D01*
X115681477Y-104642355D02*
X115674991Y-104616003D01*
X115674991Y-104616003D02*
X115670077Y-104558213D01*
X115670077Y-104558213D02*
X115667543Y-104479873D01*
X115667543Y-104479873D02*
X115667366Y-104451855D01*
X115667366Y-104451855D02*
X115667366Y-104275466D01*
X115667366Y-104275466D02*
X116196533Y-104275466D01*
X116196533Y-104275466D02*
X116196533Y-103767466D01*
X116196533Y-103767466D02*
X115667366Y-103767466D01*
X115667366Y-103767466D02*
X115667366Y-103386466D01*
X115667366Y-103386466D02*
X116937366Y-103386466D01*
X116937366Y-103386466D02*
X116937366Y-103767466D01*
X116937366Y-103767466D02*
X116937366Y-103767466D01*
G36*
X116937366Y-103767466D02*
G01*
X116408200Y-103767466D01*
X116408200Y-104275466D01*
X116937366Y-104275466D01*
X116937366Y-104656466D01*
X116316477Y-104656466D01*
X116158410Y-104656003D01*
X116014222Y-104654692D01*
X115889307Y-104652654D01*
X115789055Y-104650008D01*
X115718858Y-104646875D01*
X115684109Y-104643374D01*
X115681477Y-104642355D01*
X115674991Y-104616003D01*
X115670077Y-104558213D01*
X115667543Y-104479873D01*
X115667366Y-104451855D01*
X115667366Y-104275466D01*
X116196533Y-104275466D01*
X116196533Y-103767466D01*
X115667366Y-103767466D01*
X115667366Y-103386466D01*
X116937366Y-103386466D01*
X116937366Y-103767466D01*
G37*
X116937366Y-103767466D02*
X116408200Y-103767466D01*
X116408200Y-104275466D01*
X116937366Y-104275466D01*
X116937366Y-104656466D01*
X116316477Y-104656466D01*
X116158410Y-104656003D01*
X116014222Y-104654692D01*
X115889307Y-104652654D01*
X115789055Y-104650008D01*
X115718858Y-104646875D01*
X115684109Y-104643374D01*
X115681477Y-104642355D01*
X115674991Y-104616003D01*
X115670077Y-104558213D01*
X115667543Y-104479873D01*
X115667366Y-104451855D01*
X115667366Y-104275466D01*
X116196533Y-104275466D01*
X116196533Y-103767466D01*
X115667366Y-103767466D01*
X115667366Y-103386466D01*
X116937366Y-103386466D01*
X116937366Y-103767466D01*
X182511700Y-70641633D02*
X182786866Y-70641633D01*
X182786866Y-70641633D02*
X182786866Y-71721133D01*
X182786866Y-71721133D02*
X181178200Y-71721133D01*
X181178200Y-71721133D02*
X181178200Y-71467133D01*
X181178200Y-71467133D02*
X180903033Y-71467133D01*
X180903033Y-71467133D02*
X180903033Y-71191966D01*
X180903033Y-71191966D02*
X181453366Y-71191966D01*
X181453366Y-71191966D02*
X181453366Y-71445966D01*
X181453366Y-71445966D02*
X182236533Y-71445966D01*
X182236533Y-71445966D02*
X182236533Y-71191966D01*
X182236533Y-71191966D02*
X181453366Y-71191966D01*
X181453366Y-71191966D02*
X180903033Y-71191966D01*
X180903033Y-71191966D02*
X180903033Y-71170800D01*
X180903033Y-71170800D02*
X181178200Y-71170800D01*
X181178200Y-71170800D02*
X181178200Y-70916800D01*
X181178200Y-70916800D02*
X182236533Y-70916800D01*
X182236533Y-70916800D02*
X182236533Y-70662800D01*
X182236533Y-70662800D02*
X181178200Y-70662800D01*
X181178200Y-70662800D02*
X181178200Y-70387633D01*
X181178200Y-70387633D02*
X182511700Y-70387633D01*
X182511700Y-70387633D02*
X182511700Y-70641633D01*
X182511700Y-70641633D02*
X182511700Y-70641633D01*
G36*
X181178200Y-71170800D02*
G01*
X181178200Y-70916800D01*
X182236533Y-70916800D01*
X182236533Y-70662800D01*
X181178200Y-70662800D01*
X181178200Y-70387633D01*
X182511700Y-70387633D01*
X182511700Y-70641633D01*
X182786866Y-70641633D01*
X182786866Y-71721133D01*
X181178200Y-71721133D01*
X181178200Y-71467133D01*
X180903033Y-71467133D01*
X180903033Y-71445966D01*
X181453366Y-71445966D01*
X182236533Y-71445966D01*
X182236533Y-71191966D01*
X181453366Y-71191966D01*
X181453366Y-71445966D01*
X180903033Y-71445966D01*
X180903033Y-71170800D01*
X181178200Y-71170800D01*
G37*
X181178200Y-71170800D02*
X181178200Y-70916800D01*
X182236533Y-70916800D01*
X182236533Y-70662800D01*
X181178200Y-70662800D01*
X181178200Y-70387633D01*
X182511700Y-70387633D01*
X182511700Y-70641633D01*
X182786866Y-70641633D01*
X182786866Y-71721133D01*
X181178200Y-71721133D01*
X181178200Y-71467133D01*
X180903033Y-71467133D01*
X180903033Y-71445966D01*
X181453366Y-71445966D01*
X182236533Y-71445966D01*
X182236533Y-71191966D01*
X181453366Y-71191966D01*
X181453366Y-71445966D01*
X180903033Y-71445966D01*
X180903033Y-71170800D01*
X181178200Y-71170800D01*
X135034866Y-104889300D02*
X135036903Y-104943493D01*
X135036903Y-104943493D02*
X135051160Y-104967574D01*
X135051160Y-104967574D02*
X135089859Y-104973763D01*
X135089859Y-104973763D02*
X135119533Y-104973966D01*
X135119533Y-104973966D02*
X135204200Y-104973966D01*
X135204200Y-104973966D02*
X135204200Y-105185633D01*
X135204200Y-105185633D02*
X135119533Y-105185633D01*
X135119533Y-105185633D02*
X135065339Y-105187670D01*
X135065339Y-105187670D02*
X135041258Y-105201927D01*
X135041258Y-105201927D02*
X135035070Y-105240625D01*
X135035070Y-105240625D02*
X135034866Y-105270300D01*
X135034866Y-105270300D02*
X135032829Y-105324493D01*
X135032829Y-105324493D02*
X135018572Y-105348574D01*
X135018572Y-105348574D02*
X134979874Y-105354763D01*
X134979874Y-105354763D02*
X134950200Y-105354966D01*
X134950200Y-105354966D02*
X134895990Y-105357209D01*
X134895990Y-105357209D02*
X134871900Y-105371057D01*
X134871900Y-105371057D02*
X134865722Y-105407189D01*
X134865722Y-105407189D02*
X134865533Y-105429050D01*
X134865533Y-105429050D02*
X134868096Y-105476482D01*
X134868096Y-105476482D02*
X134883922Y-105497562D01*
X134883922Y-105497562D02*
X134925216Y-105502967D01*
X134925216Y-105502967D02*
X134950200Y-105503133D01*
X134950200Y-105503133D02*
X135034866Y-105503133D01*
X135034866Y-105503133D02*
X135034866Y-105693633D01*
X135034866Y-105693633D02*
X135204200Y-105693633D01*
X135204200Y-105693633D02*
X135204200Y-105884133D01*
X135204200Y-105884133D02*
X135119533Y-105884133D01*
X135119533Y-105884133D02*
X135065339Y-105886170D01*
X135065339Y-105886170D02*
X135041258Y-105900427D01*
X135041258Y-105900427D02*
X135035070Y-105939125D01*
X135035070Y-105939125D02*
X135034866Y-105968800D01*
X135034866Y-105968800D02*
X135034866Y-106053466D01*
X135034866Y-106053466D02*
X133955366Y-106053466D01*
X133955366Y-106053466D02*
X133955366Y-105693633D01*
X133955366Y-105693633D02*
X134653866Y-105693633D01*
X134653866Y-105693633D02*
X134653866Y-105524300D01*
X134653866Y-105524300D02*
X133955366Y-105524300D01*
X133955366Y-105524300D02*
X133955366Y-105333800D01*
X133955366Y-105333800D02*
X134653866Y-105333800D01*
X134653866Y-105333800D02*
X134653866Y-105185633D01*
X134653866Y-105185633D02*
X133955366Y-105185633D01*
X133955366Y-105185633D02*
X133955366Y-104804633D01*
X133955366Y-104804633D02*
X135034866Y-104804633D01*
X135034866Y-104804633D02*
X135034866Y-104889300D01*
X135034866Y-104889300D02*
X135034866Y-104889300D01*
G36*
X135034866Y-104889300D02*
G01*
X135036903Y-104943493D01*
X135051160Y-104967574D01*
X135089859Y-104973763D01*
X135119533Y-104973966D01*
X135204200Y-104973966D01*
X135204200Y-105185633D01*
X135119533Y-105185633D01*
X135065339Y-105187670D01*
X135041258Y-105201927D01*
X135035070Y-105240625D01*
X135034866Y-105270300D01*
X135032829Y-105324493D01*
X135018572Y-105348574D01*
X134979874Y-105354763D01*
X134950200Y-105354966D01*
X134895990Y-105357209D01*
X134871900Y-105371057D01*
X134865722Y-105407189D01*
X134865533Y-105429050D01*
X134868096Y-105476482D01*
X134883922Y-105497562D01*
X134925216Y-105502967D01*
X134950200Y-105503133D01*
X135034866Y-105503133D01*
X135034866Y-105693633D01*
X135204200Y-105693633D01*
X135204200Y-105884133D01*
X135119533Y-105884133D01*
X135065339Y-105886170D01*
X135041258Y-105900427D01*
X135035070Y-105939125D01*
X135034866Y-105968800D01*
X135034866Y-106053466D01*
X133955366Y-106053466D01*
X133955366Y-105693633D01*
X134653866Y-105693633D01*
X134653866Y-105524300D01*
X133955366Y-105524300D01*
X133955366Y-105333800D01*
X134653866Y-105333800D01*
X134653866Y-105185633D01*
X133955366Y-105185633D01*
X133955366Y-104804633D01*
X135034866Y-104804633D01*
X135034866Y-104889300D01*
G37*
X135034866Y-104889300D02*
X135036903Y-104943493D01*
X135051160Y-104967574D01*
X135089859Y-104973763D01*
X135119533Y-104973966D01*
X135204200Y-104973966D01*
X135204200Y-105185633D01*
X135119533Y-105185633D01*
X135065339Y-105187670D01*
X135041258Y-105201927D01*
X135035070Y-105240625D01*
X135034866Y-105270300D01*
X135032829Y-105324493D01*
X135018572Y-105348574D01*
X134979874Y-105354763D01*
X134950200Y-105354966D01*
X134895990Y-105357209D01*
X134871900Y-105371057D01*
X134865722Y-105407189D01*
X134865533Y-105429050D01*
X134868096Y-105476482D01*
X134883922Y-105497562D01*
X134925216Y-105502967D01*
X134950200Y-105503133D01*
X135034866Y-105503133D01*
X135034866Y-105693633D01*
X135204200Y-105693633D01*
X135204200Y-105884133D01*
X135119533Y-105884133D01*
X135065339Y-105886170D01*
X135041258Y-105900427D01*
X135035070Y-105939125D01*
X135034866Y-105968800D01*
X135034866Y-106053466D01*
X133955366Y-106053466D01*
X133955366Y-105693633D01*
X134653866Y-105693633D01*
X134653866Y-105524300D01*
X133955366Y-105524300D01*
X133955366Y-105333800D01*
X134653866Y-105333800D01*
X134653866Y-105185633D01*
X133955366Y-105185633D01*
X133955366Y-104804633D01*
X135034866Y-104804633D01*
X135034866Y-104889300D01*
X126271866Y-102158800D02*
X126463208Y-102158800D01*
X126463208Y-102158800D02*
X126457495Y-102608591D01*
X126457495Y-102608591D02*
X126451783Y-103058383D01*
X126451783Y-103058383D02*
X126361825Y-103064892D01*
X126361825Y-103064892D02*
X126305479Y-103070891D01*
X126305479Y-103070891D02*
X126279556Y-103085842D01*
X126279556Y-103085842D02*
X126272239Y-103121558D01*
X126272239Y-103121558D02*
X126271866Y-103154850D01*
X126271866Y-103154850D02*
X126271866Y-103238300D01*
X126271866Y-103238300D02*
X125382866Y-103238300D01*
X125382866Y-103238300D02*
X125382866Y-103068966D01*
X125382866Y-103068966D02*
X125192366Y-103068966D01*
X125192366Y-103068966D02*
X125192366Y-102349300D01*
X125192366Y-102349300D02*
X125404033Y-102349300D01*
X125404033Y-102349300D02*
X125404033Y-102857300D01*
X125404033Y-102857300D02*
X126250700Y-102857300D01*
X126250700Y-102857300D02*
X126250700Y-102349300D01*
X126250700Y-102349300D02*
X125404033Y-102349300D01*
X125404033Y-102349300D02*
X125192366Y-102349300D01*
X125192366Y-102349300D02*
X125192366Y-102158800D01*
X125192366Y-102158800D02*
X125382866Y-102158800D01*
X125382866Y-102158800D02*
X125382866Y-101989466D01*
X125382866Y-101989466D02*
X126271866Y-101989466D01*
X126271866Y-101989466D02*
X126271866Y-102158800D01*
X126271866Y-102158800D02*
X126271866Y-102158800D01*
G36*
X125382866Y-102158800D02*
G01*
X125382866Y-101989466D01*
X126271866Y-101989466D01*
X126271866Y-102158800D01*
X126463208Y-102158800D01*
X126457495Y-102608591D01*
X126451783Y-103058383D01*
X126361825Y-103064892D01*
X126305479Y-103070891D01*
X126279556Y-103085842D01*
X126272239Y-103121558D01*
X126271866Y-103154850D01*
X126271866Y-103238300D01*
X125382866Y-103238300D01*
X125382866Y-103068966D01*
X125192366Y-103068966D01*
X125192366Y-102857300D01*
X125404033Y-102857300D01*
X126250700Y-102857300D01*
X126250700Y-102349300D01*
X125404033Y-102349300D01*
X125404033Y-102857300D01*
X125192366Y-102857300D01*
X125192366Y-102158800D01*
X125382866Y-102158800D01*
G37*
X125382866Y-102158800D02*
X125382866Y-101989466D01*
X126271866Y-101989466D01*
X126271866Y-102158800D01*
X126463208Y-102158800D01*
X126457495Y-102608591D01*
X126451783Y-103058383D01*
X126361825Y-103064892D01*
X126305479Y-103070891D01*
X126279556Y-103085842D01*
X126272239Y-103121558D01*
X126271866Y-103154850D01*
X126271866Y-103238300D01*
X125382866Y-103238300D01*
X125382866Y-103068966D01*
X125192366Y-103068966D01*
X125192366Y-102857300D01*
X125404033Y-102857300D01*
X126250700Y-102857300D01*
X126250700Y-102349300D01*
X125404033Y-102349300D01*
X125404033Y-102857300D01*
X125192366Y-102857300D01*
X125192366Y-102158800D01*
X125382866Y-102158800D01*
X116048366Y-105185633D02*
X115879033Y-105185633D01*
X115879033Y-105185633D02*
X115879033Y-105503133D01*
X115879033Y-105503133D02*
X116048366Y-105503133D01*
X116048366Y-105503133D02*
X116048366Y-105693633D01*
X116048366Y-105693633D02*
X116556366Y-105693633D01*
X116556366Y-105693633D02*
X116556366Y-105503133D01*
X116556366Y-105503133D02*
X116725700Y-105503133D01*
X116725700Y-105503133D02*
X116725700Y-105185633D01*
X116725700Y-105185633D02*
X116556366Y-105185633D01*
X116556366Y-105185633D02*
X116556366Y-104804633D01*
X116556366Y-104804633D02*
X116746866Y-104804633D01*
X116746866Y-104804633D02*
X116746866Y-104973966D01*
X116746866Y-104973966D02*
X116937366Y-104973966D01*
X116937366Y-104973966D02*
X116937366Y-105714800D01*
X116937366Y-105714800D02*
X116746866Y-105714800D01*
X116746866Y-105714800D02*
X116746866Y-105799466D01*
X116746866Y-105799466D02*
X116744829Y-105853660D01*
X116744829Y-105853660D02*
X116730572Y-105877741D01*
X116730572Y-105877741D02*
X116691874Y-105883929D01*
X116691874Y-105883929D02*
X116662200Y-105884133D01*
X116662200Y-105884133D02*
X116608006Y-105886170D01*
X116608006Y-105886170D02*
X116583925Y-105900427D01*
X116583925Y-105900427D02*
X116577736Y-105939125D01*
X116577736Y-105939125D02*
X116577533Y-105968800D01*
X116577533Y-105968800D02*
X116577533Y-106053466D01*
X116577533Y-106053466D02*
X116027200Y-106053466D01*
X116027200Y-106053466D02*
X116027200Y-105968800D01*
X116027200Y-105968800D02*
X116025163Y-105914606D01*
X116025163Y-105914606D02*
X116010905Y-105890525D01*
X116010905Y-105890525D02*
X115972207Y-105884336D01*
X115972207Y-105884336D02*
X115942533Y-105884133D01*
X115942533Y-105884133D02*
X115888339Y-105882096D01*
X115888339Y-105882096D02*
X115864258Y-105867839D01*
X115864258Y-105867839D02*
X115858070Y-105829140D01*
X115858070Y-105829140D02*
X115857866Y-105799466D01*
X115857866Y-105799466D02*
X115857866Y-105714800D01*
X115857866Y-105714800D02*
X115667366Y-105714800D01*
X115667366Y-105714800D02*
X115667366Y-104973966D01*
X115667366Y-104973966D02*
X115857866Y-104973966D01*
X115857866Y-104973966D02*
X115857866Y-104804633D01*
X115857866Y-104804633D02*
X116048366Y-104804633D01*
X116048366Y-104804633D02*
X116048366Y-105185633D01*
X116048366Y-105185633D02*
X116048366Y-105185633D01*
G36*
X116048366Y-105185633D02*
G01*
X115879033Y-105185633D01*
X115879033Y-105503133D01*
X116048366Y-105503133D01*
X116048366Y-105693633D01*
X116556366Y-105693633D01*
X116556366Y-105503133D01*
X116725700Y-105503133D01*
X116725700Y-105185633D01*
X116556366Y-105185633D01*
X116556366Y-104804633D01*
X116746866Y-104804633D01*
X116746866Y-104973966D01*
X116937366Y-104973966D01*
X116937366Y-105714800D01*
X116746866Y-105714800D01*
X116746866Y-105799466D01*
X116744829Y-105853660D01*
X116730572Y-105877741D01*
X116691874Y-105883929D01*
X116662200Y-105884133D01*
X116608006Y-105886170D01*
X116583925Y-105900427D01*
X116577736Y-105939125D01*
X116577533Y-105968800D01*
X116577533Y-106053466D01*
X116027200Y-106053466D01*
X116027200Y-105968800D01*
X116025163Y-105914606D01*
X116010905Y-105890525D01*
X115972207Y-105884336D01*
X115942533Y-105884133D01*
X115888339Y-105882096D01*
X115864258Y-105867839D01*
X115858070Y-105829140D01*
X115857866Y-105799466D01*
X115857866Y-105714800D01*
X115667366Y-105714800D01*
X115667366Y-104973966D01*
X115857866Y-104973966D01*
X115857866Y-104804633D01*
X116048366Y-104804633D01*
X116048366Y-105185633D01*
G37*
X116048366Y-105185633D02*
X115879033Y-105185633D01*
X115879033Y-105503133D01*
X116048366Y-105503133D01*
X116048366Y-105693633D01*
X116556366Y-105693633D01*
X116556366Y-105503133D01*
X116725700Y-105503133D01*
X116725700Y-105185633D01*
X116556366Y-105185633D01*
X116556366Y-104804633D01*
X116746866Y-104804633D01*
X116746866Y-104973966D01*
X116937366Y-104973966D01*
X116937366Y-105714800D01*
X116746866Y-105714800D01*
X116746866Y-105799466D01*
X116744829Y-105853660D01*
X116730572Y-105877741D01*
X116691874Y-105883929D01*
X116662200Y-105884133D01*
X116608006Y-105886170D01*
X116583925Y-105900427D01*
X116577736Y-105939125D01*
X116577533Y-105968800D01*
X116577533Y-106053466D01*
X116027200Y-106053466D01*
X116027200Y-105968800D01*
X116025163Y-105914606D01*
X116010905Y-105890525D01*
X115972207Y-105884336D01*
X115942533Y-105884133D01*
X115888339Y-105882096D01*
X115864258Y-105867839D01*
X115858070Y-105829140D01*
X115857866Y-105799466D01*
X115857866Y-105714800D01*
X115667366Y-105714800D01*
X115667366Y-104973966D01*
X115857866Y-104973966D01*
X115857866Y-104804633D01*
X116048366Y-104804633D01*
X116048366Y-105185633D01*
D13*
%TO.C,S2*%
X173298800Y-87483000D02*
X188498800Y-87483000D01*
X188498800Y-87483000D02*
X188498800Y-72283000D01*
X173298800Y-72283000D02*
X173298800Y-87483000D01*
X188498800Y-72283000D02*
X173298800Y-72283000D01*
%TO.C,J1*%
X142032200Y-103987600D02*
X142532200Y-103987600D01*
X142032200Y-105487600D02*
X142532200Y-105487600D01*
X142032200Y-104987600D02*
X142532200Y-104987600D01*
X142032200Y-106987600D02*
X142532200Y-106987600D01*
X142032200Y-107987600D02*
X142532200Y-107987600D01*
X142032200Y-105987600D02*
X142532200Y-105987600D01*
X142032200Y-107487600D02*
X142532200Y-107487600D01*
X142032200Y-106487600D02*
X142532200Y-106487600D01*
X142032200Y-102987600D02*
X142532200Y-102987600D01*
X142032200Y-102487600D02*
X142532200Y-102487600D01*
X142032200Y-103487600D02*
X142532200Y-103487600D01*
X142032200Y-104487600D02*
X142532200Y-104487600D01*
%TD*%
M02*
