%TF.GenerationSoftware,KiCad,Pcbnew,(6.0.2)*%
%TF.CreationDate,2022-03-14T13:43:41+08:00*%
%TF.ProjectId,game,67616d65-2e6b-4696-9361-645f70636258,0.1*%
%TF.SameCoordinates,Original*%
%TF.FileFunction,Legend,Bot*%
%TF.FilePolarity,Positive*%
%FSLAX46Y46*%
G04 Gerber Fmt 4.6, Leading zero omitted, Abs format (unit mm)*
G04 Created by KiCad (PCBNEW (6.0.2)) date 2022-03-14 13:43:41*
%MOMM*%
%LPD*%
G01*
G04 APERTURE LIST*
%TA.AperFunction,Profile*%
%ADD10C,0.100000*%
%TD*%
%ADD11C,0.150000*%
%ADD12C,0.254000*%
%ADD13C,0.152000*%
%ADD14C,0.120000*%
%ADD15C,0.250000*%
%ADD16C,0.200000*%
G04 APERTURE END LIST*
D10*
X109550200Y-123291600D02*
X190830200Y-123291600D01*
X190830200Y-123291600D02*
G75*
G03*
X193116200Y-121005600I0J2286000D01*
G01*
X193116200Y-71475600D02*
X193116200Y-121005600D01*
X107264200Y-71475600D02*
X107264200Y-121005600D01*
X193116200Y-71475600D02*
G75*
G03*
X190830200Y-69189600I-2286000J0D01*
G01*
X109550200Y-69189600D02*
X190830200Y-69189600D01*
X107264200Y-121005600D02*
G75*
G03*
X109550200Y-123291600I2286000J0D01*
G01*
X109550200Y-69189600D02*
G75*
G03*
X107264200Y-71475600I0J-2286000D01*
G01*
D11*
%TO.C,U1*%
X127042580Y-114655695D02*
X127852104Y-114655695D01*
X127947342Y-114703314D01*
X127994961Y-114750933D01*
X128042580Y-114846171D01*
X128042580Y-115036647D01*
X127994961Y-115131885D01*
X127947342Y-115179504D01*
X127852104Y-115227123D01*
X127042580Y-115227123D01*
X128042580Y-116227123D02*
X128042580Y-115655695D01*
X128042580Y-115941409D02*
X127042580Y-115941409D01*
X127185438Y-115846171D01*
X127280676Y-115750933D01*
X127328295Y-115655695D01*
D12*
%TO.C,J1*%
X156455533Y-103829123D02*
X156455533Y-104736266D01*
X156516009Y-104917695D01*
X156636961Y-105038647D01*
X156818390Y-105099123D01*
X156939342Y-105099123D01*
X155185533Y-105099123D02*
X155911247Y-105099123D01*
X155548390Y-105099123D02*
X155548390Y-103829123D01*
X155669342Y-104010552D01*
X155790295Y-104131504D01*
X155911247Y-104191980D01*
D11*
%TO.C,B1*%
X169680228Y-106852447D02*
X169680228Y-107614352D01*
X170061180Y-107233400D02*
X169299276Y-107233400D01*
X169680228Y-101752447D02*
X169680228Y-102514352D01*
D12*
%TO.C,Y1*%
X124612200Y-116698600D02*
X124206200Y-116698600D01*
X124282200Y-114844600D02*
X123012200Y-114844600D01*
X123012200Y-114844600D02*
X123012200Y-115352600D01*
X124612200Y-111720600D02*
X124612200Y-116698600D01*
X121412200Y-111720600D02*
X121818200Y-111720600D01*
X121996200Y-113955600D02*
X124028200Y-113955600D01*
X124282200Y-113574600D02*
X123012200Y-113574600D01*
X124028200Y-113955600D02*
X124028200Y-114463600D01*
X123012200Y-113574600D02*
X123012200Y-113066600D01*
X121818200Y-116698600D02*
X121412200Y-116698600D01*
X121412200Y-116698600D02*
X121412200Y-111720600D01*
X123012200Y-114844600D02*
X121742200Y-114844600D01*
X124028200Y-114463600D02*
X121996200Y-114463600D01*
X124206200Y-111720600D02*
X124612200Y-111720600D01*
X123012200Y-113574600D02*
X121742200Y-113574600D01*
X121996200Y-114463600D02*
X121996200Y-113955600D01*
D13*
%TO.C,R1*%
X163981800Y-104102600D02*
X163981800Y-103143600D01*
X165303800Y-104102600D02*
X163981800Y-104102600D01*
X165303800Y-103143600D02*
X165303800Y-104102600D01*
X165303800Y-102291600D02*
X165303800Y-101332600D01*
X165303800Y-101332600D02*
X163981800Y-101332600D01*
X163981800Y-101332600D02*
X163981800Y-102291600D01*
D14*
%TO.C,U1*%
X128800200Y-119027600D02*
X129275200Y-119027600D01*
X128800200Y-118552600D02*
X128800200Y-119027600D01*
X136020200Y-119027600D02*
X135545200Y-119027600D01*
X128800200Y-112282600D02*
X128800200Y-111807600D01*
X136020200Y-111807600D02*
X135545200Y-111807600D01*
X136020200Y-118552600D02*
X136020200Y-119027600D01*
X136020200Y-112282600D02*
X136020200Y-111807600D01*
D12*
%TO.C,C3*%
X119658200Y-112405600D02*
X119658200Y-111605600D01*
X118244200Y-112981600D02*
X118244200Y-113781600D01*
X119354200Y-114090600D02*
X118554200Y-114090600D01*
X118238200Y-112405600D02*
X118238200Y-111605600D01*
X119663200Y-112981600D02*
X119663200Y-113781600D01*
X119348200Y-111295600D02*
X118548200Y-111295600D01*
X118244200Y-113781600D02*
G75*
G03*
X118554227Y-114091600I309999J-1D01*
G01*
X119658200Y-111605600D02*
G75*
G03*
X119348173Y-111295600I-309999J1D01*
G01*
X118548200Y-111295600D02*
G75*
G03*
X118238200Y-111605600I0J-310000D01*
G01*
X119354200Y-114091600D02*
G75*
G03*
X119664200Y-113781600I0J310000D01*
G01*
%TO.C,J2*%
X181720800Y-118789000D02*
X182121800Y-120889000D01*
D15*
X182055800Y-117061000D02*
X182055800Y-116661000D01*
D12*
X180997800Y-119588000D02*
X180597800Y-119588000D01*
D15*
X183455800Y-116661000D02*
X183455800Y-116461000D01*
D12*
X184996800Y-118794000D02*
X185398800Y-120894000D01*
X182121800Y-120889000D02*
X182596800Y-120889000D01*
X185573800Y-119594000D02*
X185174800Y-119594000D01*
D15*
X184055800Y-117061000D02*
X184055800Y-116661000D01*
X187555800Y-121461000D02*
X187555800Y-122261000D01*
X178555800Y-117511000D02*
X178555800Y-118311000D01*
X187555800Y-117511000D02*
X187555800Y-118411000D01*
D12*
X180792800Y-120889000D02*
X181191800Y-118789000D01*
X182098800Y-118387000D02*
X180798800Y-118387000D01*
D15*
X184065800Y-117061000D02*
X182045800Y-117061000D01*
D12*
X184074800Y-118392000D02*
X183574800Y-120894000D01*
X182596800Y-120889000D02*
X182098800Y-118387000D01*
D15*
X178555800Y-121461000D02*
X178555800Y-122261000D01*
D12*
X181191800Y-118789000D02*
X181720800Y-118789000D01*
D15*
X184055800Y-116661000D02*
X183455800Y-116661000D01*
D12*
X184274800Y-119593000D02*
X183874800Y-119593000D01*
X184468800Y-118794000D02*
X184996800Y-118794000D01*
X180297800Y-120889000D02*
X180792800Y-120889000D01*
X185375800Y-118392000D02*
X184074800Y-118392000D01*
D15*
X182055800Y-116661000D02*
X182655800Y-116661000D01*
D12*
X180798800Y-118387000D02*
X180297800Y-120889000D01*
D15*
X182655800Y-116661000D02*
X182655800Y-116461000D01*
D12*
X182296800Y-119589000D02*
X181897800Y-119589000D01*
X185873800Y-120894000D02*
X185375800Y-118392000D01*
X183574800Y-120894000D02*
X184069800Y-120894000D01*
X185398800Y-120894000D02*
X185873800Y-120894000D01*
D15*
X187555800Y-122261000D02*
X178555800Y-122261000D01*
D12*
X184069800Y-120894000D02*
X184468800Y-118794000D01*
D16*
%TO.C,IC1*%
X165103800Y-114657800D02*
X165103800Y-111757800D01*
X164453800Y-114657800D02*
X165103800Y-114657800D01*
X164453800Y-111757800D02*
X164453800Y-114657800D01*
X165103800Y-111757800D02*
X164453800Y-111757800D01*
X166603800Y-111707800D02*
X165453800Y-111707800D01*
D13*
%TO.C,R2*%
X145161600Y-104169800D02*
X143839600Y-104169800D01*
X145161600Y-103210800D02*
X145161600Y-104169800D01*
X143839600Y-101399800D02*
X143839600Y-102358800D01*
X143839600Y-104169800D02*
X143839600Y-103210800D01*
X145161600Y-101399800D02*
X143839600Y-101399800D01*
X145161600Y-102358800D02*
X145161600Y-101399800D01*
%TO.C,R6*%
X164068200Y-117917400D02*
X164068200Y-118876400D01*
X162746200Y-116106400D02*
X162746200Y-117065400D01*
X164068200Y-116106400D02*
X162746200Y-116106400D01*
X162746200Y-118876400D02*
X162746200Y-117917400D01*
X164068200Y-117065400D02*
X164068200Y-116106400D01*
X164068200Y-118876400D02*
X162746200Y-118876400D01*
%TO.C,R11*%
X121890200Y-122174600D02*
X121890200Y-120852600D01*
X123701200Y-122174600D02*
X124660200Y-122174600D01*
X124660200Y-122174600D02*
X124660200Y-120852600D01*
X124660200Y-120852600D02*
X123701200Y-120852600D01*
X122849200Y-122174600D02*
X121890200Y-122174600D01*
X121890200Y-120852600D02*
X122849200Y-120852600D01*
%TO.C,R7*%
X146598200Y-122073000D02*
X145639200Y-122073000D01*
X147450200Y-122073000D02*
X148409200Y-122073000D01*
X148409200Y-120751000D02*
X147450200Y-120751000D01*
X148409200Y-122073000D02*
X148409200Y-120751000D01*
X145639200Y-120751000D02*
X146598200Y-120751000D01*
X145639200Y-122073000D02*
X145639200Y-120751000D01*
%TO.C,R8*%
X148412800Y-116048200D02*
X147090800Y-116048200D01*
X148412800Y-118818200D02*
X147090800Y-118818200D01*
X147090800Y-116048200D02*
X147090800Y-117007200D01*
X147090800Y-118818200D02*
X147090800Y-117859200D01*
X148412800Y-117859200D02*
X148412800Y-118818200D01*
X148412800Y-117007200D02*
X148412800Y-116048200D01*
%TO.C,R9*%
X163658000Y-120776400D02*
X162699000Y-120776400D01*
X162699000Y-122098400D02*
X163658000Y-122098400D01*
X164510000Y-120776400D02*
X165469000Y-120776400D01*
X162699000Y-120776400D02*
X162699000Y-122098400D01*
X165469000Y-122098400D02*
X164510000Y-122098400D01*
X165469000Y-120776400D02*
X165469000Y-122098400D01*
D12*
%TO.C,C5*%
X143974400Y-117734400D02*
X143974400Y-118534400D01*
X143968400Y-117158400D02*
X143968400Y-116358400D01*
X145084400Y-118843400D02*
X144284400Y-118843400D01*
X145388400Y-117158400D02*
X145388400Y-116358400D01*
X145078400Y-116048400D02*
X144278400Y-116048400D01*
X145393400Y-117734400D02*
X145393400Y-118534400D01*
X143974400Y-118534400D02*
G75*
G03*
X144284427Y-118844400I309999J-1D01*
G01*
X145084400Y-118844400D02*
G75*
G03*
X145394400Y-118534400I0J310000D01*
G01*
X144278400Y-116048400D02*
G75*
G03*
X143968400Y-116358400I0J-310000D01*
G01*
X145388400Y-116358400D02*
G75*
G03*
X145078373Y-116048400I-309999J1D01*
G01*
D13*
%TO.C,R4*%
X167448800Y-120776400D02*
X167448800Y-122098400D01*
X170218800Y-120776400D02*
X170218800Y-122098400D01*
X167448800Y-122098400D02*
X168407800Y-122098400D01*
X169259800Y-120776400D02*
X170218800Y-120776400D01*
X170218800Y-122098400D02*
X169259800Y-122098400D01*
X168407800Y-120776400D02*
X167448800Y-120776400D01*
%TO.C,R3*%
X147600000Y-104153400D02*
X146278000Y-104153400D01*
X147600000Y-102342400D02*
X147600000Y-101383400D01*
X146278000Y-104153400D02*
X146278000Y-103194400D01*
X146278000Y-101383400D02*
X146278000Y-102342400D01*
X147600000Y-103194400D02*
X147600000Y-104153400D01*
X147600000Y-101383400D02*
X146278000Y-101383400D01*
D12*
%TO.C,FB1*%
X163815400Y-106146600D02*
X164069400Y-105892600D01*
X167625400Y-106146600D02*
X167625400Y-107543600D01*
X167625400Y-107543600D02*
X167625400Y-107670600D01*
X165339400Y-107924600D02*
X164196400Y-107924600D01*
X164069400Y-105892600D02*
X165339400Y-105892600D01*
X166101400Y-105892600D02*
X167244400Y-105892600D01*
X163815400Y-107670600D02*
X163815400Y-106273600D01*
X163815400Y-106273600D02*
X163815400Y-106146600D01*
X167244400Y-105892600D02*
X167371400Y-105892600D01*
X164196400Y-107924600D02*
X164069400Y-107924600D01*
X167371400Y-107924600D02*
X166101400Y-107924600D01*
X167371400Y-105892600D02*
X167625400Y-106146600D01*
X164069400Y-107924600D02*
X163815400Y-107670600D01*
X167625400Y-107670600D02*
X167371400Y-107924600D01*
%TO.C,FB2*%
X147330800Y-105903800D02*
X147584800Y-106157800D01*
X143774800Y-106284800D02*
X143774800Y-106157800D01*
X145298800Y-107935800D02*
X144155800Y-107935800D01*
X143774800Y-106157800D02*
X144028800Y-105903800D01*
X147330800Y-107935800D02*
X146060800Y-107935800D01*
X144155800Y-107935800D02*
X144028800Y-107935800D01*
X143774800Y-107681800D02*
X143774800Y-106284800D01*
X147584800Y-106157800D02*
X147584800Y-107554800D01*
X147203800Y-105903800D02*
X147330800Y-105903800D01*
X147584800Y-107554800D02*
X147584800Y-107681800D01*
X144028800Y-107935800D02*
X143774800Y-107681800D01*
X147584800Y-107681800D02*
X147330800Y-107935800D01*
X146060800Y-105903800D02*
X147203800Y-105903800D01*
X144028800Y-105903800D02*
X145298800Y-105903800D01*
%TO.C,C4*%
X173662600Y-122198200D02*
X174462600Y-122198200D01*
X174772600Y-121888200D02*
X174772600Y-121088200D01*
X171977600Y-121894200D02*
X171977600Y-121094200D01*
X173086600Y-120784200D02*
X172286600Y-120784200D01*
X173662600Y-120778200D02*
X174462600Y-120778200D01*
X173086600Y-122203200D02*
X172286600Y-122203200D01*
X174462600Y-122198200D02*
G75*
G03*
X174772600Y-121888173I1J309999D01*
G01*
X171976600Y-121894200D02*
G75*
G03*
X172286600Y-122204200I310000J0D01*
G01*
X172286600Y-120784200D02*
G75*
G03*
X171976600Y-121094227I-1J-309999D01*
G01*
X174772600Y-121088200D02*
G75*
G03*
X174462600Y-120778200I-310000J0D01*
G01*
%TO.C,C6*%
X141423400Y-117142400D02*
X141423400Y-116342400D01*
X141738400Y-118828400D02*
X142538400Y-118828400D01*
X141732400Y-116033400D02*
X142532400Y-116033400D01*
X141428400Y-117718400D02*
X141428400Y-118518400D01*
X142842400Y-117142400D02*
X142842400Y-116342400D01*
X142848400Y-117718400D02*
X142848400Y-118518400D01*
X141732400Y-116032400D02*
G75*
G03*
X141422400Y-116342400I0J-310000D01*
G01*
X142538400Y-118828400D02*
G75*
G03*
X142848400Y-118518400I0J310000D01*
G01*
X142842400Y-116342400D02*
G75*
G03*
X142532373Y-116032400I-309999J1D01*
G01*
X141428400Y-118518400D02*
G75*
G03*
X141738427Y-118828400I309999J-1D01*
G01*
D16*
%TO.C,IC2*%
X142983000Y-111630800D02*
X142983000Y-114530800D01*
X143783000Y-111630800D02*
X142983000Y-111630800D01*
X143783000Y-114530800D02*
X143783000Y-111630800D01*
X142983000Y-114530800D02*
X143783000Y-114530800D01*
X145233000Y-111480800D02*
X144133000Y-111480800D01*
D13*
%TO.C,R12*%
X134820200Y-120852600D02*
X133861200Y-120852600D01*
X134820200Y-122174600D02*
X134820200Y-120852600D01*
X133861200Y-122174600D02*
X134820200Y-122174600D01*
X133009200Y-122174600D02*
X132050200Y-122174600D01*
X132050200Y-120852600D02*
X133009200Y-120852600D01*
X132050200Y-122174600D02*
X132050200Y-120852600D01*
D12*
%TO.C,C7*%
X119658200Y-120471600D02*
X119658200Y-119671600D01*
X118244200Y-121047600D02*
X118244200Y-121847600D01*
X118238200Y-120471600D02*
X118238200Y-119671600D01*
X119663200Y-121047600D02*
X119663200Y-121847600D01*
X119354200Y-122156600D02*
X118554200Y-122156600D01*
X119348200Y-119361600D02*
X118548200Y-119361600D01*
X118548200Y-119361600D02*
G75*
G03*
X118238200Y-119671600I0J-310000D01*
G01*
X118244200Y-121847600D02*
G75*
G03*
X118554227Y-122157600I309999J-1D01*
G01*
X119354200Y-122157600D02*
G75*
G03*
X119664200Y-121847600I0J310000D01*
G01*
X119658200Y-119671600D02*
G75*
G03*
X119348173Y-119361600I-309999J1D01*
G01*
%TO.C,C8*%
X128942200Y-120803600D02*
X129742200Y-120803600D01*
X128942200Y-122223600D02*
X129742200Y-122223600D01*
X128366200Y-122228600D02*
X127566200Y-122228600D01*
X127257200Y-121919600D02*
X127257200Y-121119600D01*
X130052200Y-121913600D02*
X130052200Y-121113600D01*
X128366200Y-120809600D02*
X127566200Y-120809600D01*
X129742200Y-122223600D02*
G75*
G03*
X130052200Y-121913573I1J309999D01*
G01*
X127256200Y-121919600D02*
G75*
G03*
X127566200Y-122229600I310000J0D01*
G01*
X130052200Y-121113600D02*
G75*
G03*
X129742200Y-120803600I-310000J0D01*
G01*
X127566200Y-120809600D02*
G75*
G03*
X127256200Y-121119627I-1J-309999D01*
G01*
D13*
%TO.C,R5*%
X166862200Y-118885400D02*
X165540200Y-118885400D01*
X166862200Y-117926400D02*
X166862200Y-118885400D01*
X166862200Y-117074400D02*
X166862200Y-116115400D01*
X166862200Y-116115400D02*
X165540200Y-116115400D01*
X165540200Y-116115400D02*
X165540200Y-117074400D01*
X165540200Y-118885400D02*
X165540200Y-117926400D01*
D12*
%TO.C,C9*%
X119652200Y-116453600D02*
X119652200Y-115653600D01*
X118548200Y-118139600D02*
X119348200Y-118139600D01*
X119658200Y-117029600D02*
X119658200Y-117829600D01*
X118238200Y-117029600D02*
X118238200Y-117829600D01*
X118233200Y-116453600D02*
X118233200Y-115653600D01*
X118542200Y-115344600D02*
X119342200Y-115344600D01*
X118542200Y-115343600D02*
G75*
G03*
X118232200Y-115653600I0J-310000D01*
G01*
X119652200Y-115653600D02*
G75*
G03*
X119342173Y-115343600I-309999J1D01*
G01*
X119348200Y-118139600D02*
G75*
G03*
X119658200Y-117829600I0J310000D01*
G01*
X118238200Y-117829600D02*
G75*
G03*
X118548227Y-118139600I309999J-1D01*
G01*
%TO.C,IC3*%
X174736600Y-116014400D02*
X174736600Y-117264400D01*
X169636600Y-113164400D02*
X169636600Y-117264400D01*
X174736600Y-113164400D02*
X169636600Y-113164400D01*
X169636600Y-117264400D02*
X174736600Y-117264400D01*
X174736600Y-114414400D02*
X174736600Y-113164400D01*
X174686600Y-114414400D02*
G75*
G03*
X174686204Y-116014214I374999J-800000D01*
G01*
X175386600Y-117714400D02*
G75*
G03*
X175386600Y-117714400I-170000J0D01*
G01*
%TO.C,C1*%
X167638800Y-103037200D02*
X167638800Y-103837200D01*
X166218800Y-103037200D02*
X166218800Y-103837200D01*
X166528800Y-104147200D02*
X167328800Y-104147200D01*
X166213800Y-102461200D02*
X166213800Y-101661200D01*
X166522800Y-101352200D02*
X167322800Y-101352200D01*
X167632800Y-102461200D02*
X167632800Y-101661200D01*
X167328800Y-104147200D02*
G75*
G03*
X167638800Y-103837200I0J310000D01*
G01*
X166218800Y-103837200D02*
G75*
G03*
X166528827Y-104147200I309999J-1D01*
G01*
X166522800Y-101351200D02*
G75*
G03*
X166212800Y-101661200I0J-310000D01*
G01*
X167632800Y-101661200D02*
G75*
G03*
X167322773Y-101351200I-309999J1D01*
G01*
%TO.C,C2*%
X147047800Y-113108600D02*
X147047800Y-113908600D01*
X148461800Y-112532600D02*
X148461800Y-111732600D01*
X147041800Y-112532600D02*
X147041800Y-111732600D01*
X148151800Y-111422600D02*
X147351800Y-111422600D01*
X148466800Y-113108600D02*
X148466800Y-113908600D01*
X148157800Y-114217600D02*
X147357800Y-114217600D01*
X148461800Y-111732600D02*
G75*
G03*
X148151773Y-111422600I-309999J1D01*
G01*
X148157800Y-114218600D02*
G75*
G03*
X148467800Y-113908600I0J310000D01*
G01*
X147047800Y-113908600D02*
G75*
G03*
X147357827Y-114218600I309999J-1D01*
G01*
X147351800Y-111422600D02*
G75*
G03*
X147041800Y-111732600I0J-310000D01*
G01*
D13*
%TO.C,R10*%
X142381800Y-122073000D02*
X141422800Y-122073000D01*
X141422800Y-122073000D02*
X141422800Y-120751000D01*
X143233800Y-122073000D02*
X144192800Y-122073000D01*
X144192800Y-122073000D02*
X144192800Y-120751000D01*
X144192800Y-120751000D02*
X143233800Y-120751000D01*
X141422800Y-120751000D02*
X142381800Y-120751000D01*
%TD*%
M02*
