M48
; DRILL file {KiCad (6.0.2)} date Mon Mar 14 13:43:58 2022
; FORMAT={-:-/ absolute / inch / decimal}
; #@! TF.CreationDate,2022-03-14T13:43:58+08:00
; #@! TF.GenerationSoftware,Kicad,Pcbnew,(6.0.2)
; #@! TF.FileFunction,Plated,1,2,PTH
FMAT,2
INCH
; #@! TA.AperFunction,Plated,PTH,ViaDrill
T1C0.0118
; #@! TA.AperFunction,Plated,PTH,ViaDrill
T2C0.0157
; #@! TA.AperFunction,Plated,PTH,ViaDrill
T3C0.0236
; #@! TA.AperFunction,Plated,PTH,ComponentDrill
T4C0.0236
; #@! TA.AperFunction,Plated,PTH,ComponentDrill
T5C0.0360
; #@! TA.AperFunction,Plated,PTH,ComponentDrill
T6C0.0394
; #@! TA.AperFunction,Plated,PTH,ComponentDrill
T7C0.0433
; #@! TA.AperFunction,Plated,PTH,ComponentDrill
T8C0.0472
; #@! TA.AperFunction,Plated,PTH,ComponentDrill
T9C0.0512
; #@! TA.AperFunction,Plated,PTH,ComponentDrill
T10C0.0591
; #@! TA.AperFunction,Plated,PTH,ComponentDrill
T11C0.0630
; #@! TA.AperFunction,Plated,PTH,ComponentDrill
T12C0.0650
; #@! TA.AperFunction,Plated,PTH,ComponentDrill
T13C0.0866
%
G90
G05
T1
X4.746Y-4.666
X4.8243Y-4.6657
X4.993Y-4.784
X5.02Y-4.244
X5.02Y-4.4
X5.03Y-4.6884
X5.0777Y-4.6552
X5.093Y-4.784
X5.1017Y-4.6793
X5.186Y-4.244
X5.187Y-3.951
X5.377Y-4.689
X5.392Y-4.577
X5.398Y-4.618
X5.408Y-3.1896
X5.408Y-3.2447
X5.4153Y-4.653
X5.464Y-4.629
X5.5233Y-4.72
X5.5687Y-4.72
X5.5938Y-4.4146
X5.594Y-4.452
X5.596Y-4.596
X5.597Y-4.652
X5.696Y-4.414
X5.696Y-4.453
X5.696Y-4.651
X5.699Y-4.21
X5.7587Y-4.78
X5.775Y-4.2094
X5.785Y-4.0756
X5.816Y-4.413
X5.817Y-4.47
X5.817Y-4.592
X5.817Y-4.653
X5.819Y-4.781
X5.843Y-4.2452
X6.094Y-4.098
X6.113Y-3.922
X6.143Y-4.6963
X6.16Y-4.3217
X6.1705Y-4.212
X6.2093Y-4.273
X6.2553Y-4.247
X6.357Y-3.9817
X6.359Y-4.597
X6.3593Y-4.484
X6.429Y-4.781
X6.47Y-4.545
X6.482Y-4.0144
X6.49Y-4.782
X6.544Y-4.595
X6.572Y-4.019
X6.629Y-4.623
X6.678Y-4.781
X6.754Y-4.65
X6.779Y-4.536
X6.799Y-4.783
X6.804Y-4.651
X6.854Y-4.4215
X6.854Y-4.6505
X6.854Y-4.783
X7.01Y-4.343
X7.087Y-4.2833
X7.087Y-4.3287
X7.1145Y-4.2833
X7.1145Y-4.3287
X7.1471Y-4.5536
X7.223Y-4.343
T2
X4.59Y-4.774
X5.153Y-4.7486
X6.113Y-3.814
X6.772Y-4.221
T3
X5.213Y-4.544
X6.541Y-3.692
X6.639Y-4.341
X6.6829Y-3.6923
T5
X4.343Y-4.244
X4.343Y-4.344
X4.343Y-4.444
X4.343Y-4.5465
T6
X4.683Y-4.034
X4.683Y-4.134
X5.063Y-4.034
X5.063Y-4.134
X5.403Y-4.034
X5.403Y-4.134
T7
X4.8609Y-2.9719
X4.9593Y-2.9719
X5.0577Y-2.9719
X5.303Y-3.2171
X5.303Y-3.3156
X5.303Y-3.414
T8
X7.122Y-2.9127
X7.122Y-3.6647
X7.3189Y-2.9954
X7.3189Y-3.7474
T9
X4.8313Y-3.542
X4.8313Y-3.7191
X5.0873Y-3.542
X5.0873Y-3.7191
T11
X4.7103Y-3.1187
X4.7103Y-3.5124
X5.2083Y-3.1187
X5.2083Y-3.5124
T12
X4.79Y-3.3156
X5.1286Y-3.3156
T13
X4.315Y-2.816
X4.315Y-4.762
X7.511Y-2.816
X7.511Y-4.762
T4
G00X7.0368Y-4.591
M15
G01X7.0368Y-4.5477
M16
G05
G00X7.0368Y-4.7307
M15
G01X7.0368Y-4.6993
M16
G05
G00X7.377Y-4.591
M15
G01X7.377Y-4.5477
M16
G05
G00X7.377Y-4.7307
M15
G01X7.377Y-4.6993
M16
G05
T10
G00X6.9251Y-3.3576
M15
G01X6.9251Y-3.3379
M16
G05
G00X6.9251Y-4.1096
M15
G01X6.9251Y-4.0899
M16
G05
T0
M30
